<svg xmlns="http://www.w3.org/2000/svg" width="22" height="24" fill="none" viewBox="0 0 22 24"><g clip-path="url(#clip0)"><path fill="#333" d="M11.0048 6.60952C7.8816 6.60952 5.3624 9.01421 5.3624 11.9955C5.3624 14.9767 7.8816 17.3814 11.0048 17.3814C14.128 17.3814 16.6472 14.9767 16.6472 11.9955C16.6472 9.01421 14.128 6.60952 11.0048 6.60952ZM11.0048 15.497C8.98651 15.497 7.33651 13.9267 7.33651 11.9955C7.33651 10.0642 8.9816 8.4939 11.0048 8.4939C13.028 8.4939 14.6731 10.0642 14.6731 11.9955C14.6731 13.9267 13.0231 15.497 11.0048 15.497ZM18.1941 6.38921C18.1941 7.08765 17.6048 7.64546 16.878 7.64546C16.1463 7.64546 15.562 7.08296 15.562 6.38921C15.562 5.69546 16.1512 5.13296 16.878 5.13296C17.6048 5.13296 18.1941 5.69546 18.1941 6.38921ZM21.9311 7.66421C21.8477 5.9814 21.445 4.49077 20.1535 3.26265C18.8669 2.03452 17.3053 1.65015 15.5423 1.56577C13.7253 1.46733 8.27936 1.46733 6.4624 1.56577C4.70436 1.64546 3.14276 2.02983 1.85124 3.25796C0.55972 4.48608 0.161952 5.97671 0.0735596 7.65952C-0.0295654 9.3939 -0.0295654 14.5923 0.0735596 16.3267C0.157042 18.0095 0.55972 19.5001 1.85124 20.7283C3.14276 21.9564 4.69945 22.3408 6.4624 22.4251C8.27936 22.5236 13.7253 22.5236 15.5423 22.4251C17.3053 22.3455 18.8669 21.9611 20.1535 20.7283C21.4401 19.5001 21.8428 18.0095 21.9311 16.3267C22.0343 14.5923 22.0343 9.39858 21.9311 7.66421ZM19.5838 18.1876C19.2008 19.1064 18.4593 19.8142 17.4919 20.1845C16.0432 20.733 12.6057 20.6064 11.0048 20.6064C9.40392 20.6064 5.96151 20.7283 4.51776 20.1845C3.55526 19.8189 2.81374 19.1111 2.42579 18.1876C1.85124 16.8048 1.98383 13.5236 1.98383 11.9955C1.98383 10.4673 1.85615 7.1814 2.42579 5.80327C2.80883 4.88452 3.55034 4.17671 4.51776 3.8064C5.96642 3.25796 9.40392 3.38452 11.0048 3.38452C12.6057 3.38452 16.0481 3.26265 17.4919 3.8064C18.4544 4.17202 19.1959 4.87983 19.5838 5.80327C20.1584 7.18608 20.0258 10.4673 20.0258 11.9955C20.0258 13.5236 20.1584 16.8095 19.5838 18.1876Z"/></g><defs><clipPath id="clip0"><rect width="22" height="24" fill="#fff"/></clipPath></defs></svg>