<svg width="14" height="15" viewBox="0 0 20 20" fill="none" xmlns="http://www.w3.org/2000/svg">
    <g clip-path="url(#clip0)">
        <path d="M14.7117 6.01893H14.7116C13.6025 5.8399 12.4943 6.12131 11.5915 6.81111C10.6545 7.52716 9.34538 7.52716 8.40824 6.81111C7.68297 6.25689 6.82512 5.96631 5.94063 5.96631C5.72423 5.96631 5.50622 5.98369 5.28817 6.01889C3.01615 6.38541 1.45889 8.59173 1.81682 10.9371C2.46791 15.2036 3.70189 18.1072 5.38544 19.334C6.1727 19.9075 7.0427 20.1076 8.04539 19.946C8.65988 19.8468 9.14527 19.5965 9.52941 19.1807C9.65066 19.0495 9.8212 18.9748 9.99987 18.9748C10.1785 18.9748 10.3491 19.0494 10.4703 19.1807C10.8544 19.5965 11.3399 19.8468 11.9544 19.946C12.9571 20.1079 13.8271 19.9076 14.6143 19.334C16.2979 18.1072 17.5318 15.2036 18.1829 10.9371C18.5409 8.59177 16.9836 6.38545 14.7117 6.01893Z"
              fill="#CCCCCC"/>
        <path d="M14.7286 1.92958C14.6011 1.5997 14.2303 1.43552 13.9002 1.56313C13.7993 1.60216 12.2126 2.23305 10.9595 3.7059C10.9125 3.47406 10.8469 3.24067 10.7581 3.00934C10.0125 1.06688 7.96412 0.0995838 7.87729 0.0593106C7.72014 -0.0135017 7.54018 -0.0194782 7.3785 0.0425138C7.21682 0.104584 7.08718 0.229466 7.01909 0.388762C6.98147 0.476809 6.10652 2.56629 6.85214 4.50875C6.91948 4.6841 6.99815 4.85074 7.08429 5.01023C7.83561 5.17656 8.55021 5.50784 9.1865 5.99401C9.66564 6.36022 10.3351 6.36022 10.8143 5.99401C10.927 5.90792 11.0422 5.82671 11.1595 5.75038C11.4927 5.01855 12.0134 4.35644 12.7184 3.77293C13.5585 3.0775 14.3557 2.76051 14.3622 2.75797C14.6921 2.63039 14.8562 2.25954 14.7286 1.92958Z"
              fill="#CCCCCC"/>
    </g>
    <defs>
        <clipPath id="clip0">
            <rect width="20" height="20" fill="white"/>
        </clipPath>
    </defs>
</svg>