<svg xmlns="http://www.w3.org/2000/svg" width="101" height="97" fill="none" viewBox="0 0 101 97"><path fill="#0075FF" d="M100 49.7112C95 99.7112 78 100.711 50 93.7111C22 86.7111 -7.33137e-06 74.7113 0 49.7112C7.33137e-06 24.7111 18.0001 18.711 39.5001 5.71107C61.0001 -7.28889 105 -0.288834 100 49.7112Z"/><g clip-path="url(#clip0)"><path fill="#fff" d="M54.5925 29.0135C54.0674 28.887 53.5407 29.2098 53.4143 29.734C53.288 30.2583 53.6105 30.7858 54.1348 30.9122C62.05 32.8203 67.578 39.847 67.578 47.9999C67.578 57.6925 59.6926 65.578 50 65.578C40.3073 65.578 32.4219 57.6925 32.4219 47.9999C32.4219 39.8473 37.9496 32.8206 45.8645 30.9123C46.3888 30.7858 46.7113 30.2583 46.585 29.7341C46.4585 29.2098 45.9308 28.8874 45.4067 29.0136C41.2193 30.0232 37.4254 32.4438 34.7242 35.8295C31.9403 39.3186 30.4688 43.5271 30.4688 47.9999C30.4688 58.7694 39.2305 67.5311 50 67.5311C60.7695 67.5311 69.5312 58.7695 69.5312 47.9999C69.5312 43.527 68.0597 39.3184 65.2756 35.8292C62.5743 32.4436 58.7802 30.023 54.5925 29.0135Z"/><path fill="#fff" d="M74.4111 45.6511L73.2686 43.5195L73.4591 40.8844C73.6423 39.1953 72.9686 37.5469 71.6545 36.4719L69.7581 34.919L69.0121 32.6717C68.5943 30.9535 67.2893 29.5724 65.5962 29.061L63.2553 28.3538L61.4625 26.2815C60.4018 25.0338 58.7962 24.3848 57.1674 24.5448L54.7377 24.7869L52.3494 23.5888C50.8775 22.8041 49.1226 22.8034 47.6505 23.5887L45.5191 24.731L42.8841 24.5404C41.1943 24.3572 39.5465 25.031 38.4716 26.345L36.9186 28.2415L34.6714 28.9875C32.953 29.4052 31.572 30.7102 31.0606 32.4033L30.3534 34.7442L28.2812 36.5371C27.0335 37.5978 26.3841 39.2031 26.5444 40.8322L26.7865 43.2618L25.5883 45.6502C24.8036 47.1222 24.803 48.8769 25.5881 50.3491L26.7306 52.4805L26.54 55.1157C26.3569 56.8047 27.0306 58.4531 28.3446 59.5282L30.241 61.0811L30.987 63.3284C31.4047 65.0466 32.7097 66.4277 34.4029 66.9391L36.7438 67.6462L38.5366 69.7186C39.5975 70.9662 41.2023 71.6156 42.8317 71.4553L45.2613 71.2132L47.6495 72.4111C48.3857 72.8037 49.1927 73.0001 49.9998 73.0001C50.8062 73.0001 51.6126 72.804 52.3485 72.4115L54.48 71.2691L57.1151 71.4598C58.804 71.6426 60.4524 70.9691 61.5276 69.6552L63.0806 67.7587L65.3279 67.0128C67.0461 66.595 68.427 65.2901 68.9384 63.5969L69.6457 61.2561L71.718 59.4632C72.9657 58.4025 73.6151 56.7972 73.4548 55.168L73.2127 52.7386L74.4107 50.3502C75.1955 48.8781 75.1962 47.1232 74.4111 45.6511ZM72.6831 49.4388C72.6788 49.4468 72.6746 49.4548 72.6706 49.4628L71.3399 52.1156C71.257 52.2808 71.2227 52.4663 71.241 52.6504L71.5112 55.3603C71.6087 56.3512 71.213 57.3288 70.4465 57.9805L68.1538 59.9641C68.0139 60.0851 67.9114 60.2432 67.858 60.4202L67.0688 63.032C66.7543 64.0734 65.8997 64.8741 64.8387 65.1214C64.8097 65.1282 64.7809 65.1363 64.7527 65.1456L62.1967 65.994C62.0212 66.0523 61.8658 66.1591 61.7487 66.3022L60.0163 68.418C59.3583 69.2223 58.3475 69.633 57.3131 69.5166C57.3002 69.5151 57.2872 69.514 57.2744 69.513L54.3387 69.3007C54.1538 69.2874 53.9699 69.3267 53.807 69.414L51.4277 70.6892C50.5304 71.1677 49.4587 71.1657 48.5608 70.6836C48.5528 70.6794 48.5448 70.6752 48.5368 70.6712L45.884 69.3405C45.7477 69.2722 45.5977 69.2368 45.4462 69.2368C45.4139 69.2368 45.3816 69.2384 45.3493 69.2416L42.6393 69.5116C41.6485 69.6095 40.6709 69.2135 40.0191 68.4471L38.0355 66.1543C37.9146 66.0145 37.7564 65.9118 37.5794 65.8584L34.9676 65.0695C33.9261 64.7549 33.1255 63.9003 32.8781 62.8392C32.8714 62.8102 32.8633 62.7816 32.8539 62.7533L32.0056 60.1971C31.9474 60.0216 31.8405 59.8664 31.6975 59.7493L29.5818 58.0168C28.7775 57.3587 28.3667 56.3482 28.4831 55.3136C28.4846 55.3008 28.4858 55.2879 28.4868 55.2749L28.6991 52.339C28.7124 52.1547 28.6731 51.9703 28.5858 51.8073L27.3105 49.4282C26.832 48.531 26.834 47.4593 27.316 46.5613C27.3203 46.5534 27.3244 46.5454 27.3284 46.5374L28.659 43.8846C28.7419 43.7194 28.7762 43.5339 28.7578 43.3499L28.4878 40.6398C28.3904 39.6489 28.786 38.6713 29.5525 38.0196L31.8452 36.036C31.9851 35.915 32.0876 35.7569 32.1411 35.5799L32.9302 32.968C33.2447 31.9266 34.0993 31.126 35.1605 30.8786C35.1895 30.8718 35.2181 30.8637 35.2464 30.8544L37.8023 30.0059C37.9778 29.9477 38.1331 29.8409 38.2502 29.6978L39.9828 27.582C40.6408 26.7778 41.6516 26.3673 42.6859 26.4835C42.6988 26.4849 42.7117 26.4861 42.7246 26.4871L45.6603 26.6994C45.8442 26.7125 46.0291 26.6734 46.1921 26.5861L48.5712 25.3109C49.4684 24.8324 50.5402 24.8344 51.438 25.3164C51.4459 25.3206 51.4539 25.3248 51.4621 25.3288L54.1149 26.6595C54.2801 26.7424 54.4656 26.7767 54.6495 26.7583L57.3596 26.4883C58.3504 26.3906 59.328 26.7864 59.9798 27.5529L61.9634 29.8457C62.0843 29.9855 62.2425 30.0881 62.4195 30.1416L65.0313 30.9306C66.0727 31.2452 66.8733 32.0999 67.1208 33.1609C67.1275 33.1899 67.1356 33.2185 67.145 33.2468L67.9934 35.8028C68.0517 35.9783 68.1585 36.1335 68.3015 36.2506L70.4173 37.9831C71.2216 38.6411 71.6323 39.6516 71.5159 40.6863C71.5144 40.6991 71.5132 40.712 71.5124 40.725L71.3001 43.6609C71.2867 43.8452 71.326 44.0296 71.4132 44.1926L72.6885 46.5718C73.1671 47.4692 73.1651 48.5409 72.6831 49.4388Z"/><path fill="#fff" d="M45.7619 42.6793C45.6052 42.3492 45.2698 42.1204 44.8801 42.1204H39.7203C39.1809 42.1204 38.7437 42.5576 38.7437 43.0969V57.8787C38.7437 58.4181 39.1809 58.8553 39.7203 58.8553H44.8801C45.2849 58.8553 45.6321 58.6091 45.7801 58.2582C46.5245 58.3627 47.2914 58.5744 48.0899 58.7955C49.2903 59.1278 50.5314 59.4715 51.8209 59.4715H57.4585C59.2013 59.4715 60.6135 58.5476 61.2362 56.9998C61.5395 56.2457 61.5926 55.4631 61.4154 54.8079C61.7396 54.5164 62.0136 54.1535 62.2209 53.7298C62.6409 52.8712 62.7248 51.9057 62.4867 51.0925C62.9304 50.6638 63.2615 50.0977 63.4345 49.4302C63.5964 48.8062 63.5935 48.1905 63.4496 47.657C64.3304 47.1388 64.9237 46.1974 64.9237 45.1367C64.9237 44.3047 64.5998 43.5381 64.0115 42.9782C63.4466 42.4405 62.6943 42.1443 61.8931 42.1443L53.9468 42.1445C53.3431 41.3872 53.1552 40.3594 53.4989 39.5322C54.2044 37.8344 54.1606 36.3972 53.3574 34.8724C52.7611 33.7406 51.1578 32.6139 49.8103 32.8063C48.9957 32.9227 48.4064 33.4983 48.2335 34.3464C48.1826 34.5959 48.1687 34.8654 48.1526 35.1775C48.1127 35.9474 48.058 37.0019 47.3934 38.2753C46.9429 39.1385 46.7926 40.0262 46.66 40.8095C46.4701 41.9316 46.378 42.4721 45.7619 42.6793ZM40.6968 44.0735H43.9036V56.9021H40.6968V44.0735ZM48.5858 41.1355C48.6995 40.4635 48.8171 39.7686 49.1249 39.1791C49.9865 37.5283 50.0595 36.12 50.1031 35.2786C50.1148 35.0545 50.1257 34.8428 50.1474 34.7363C50.1475 34.7356 50.1477 34.7349 50.1479 34.7342C50.4866 34.7389 51.3203 35.1962 51.6294 35.7829C52.1644 36.7981 52.1821 37.6113 51.6954 38.783C51.2565 39.8394 51.2895 41.0653 51.7236 42.1552C51.2485 42.2213 50.8825 42.6281 50.8825 43.1213C50.8825 43.6606 51.3198 44.0979 51.8591 44.0979L61.8931 44.0976C62.1907 44.0976 62.4648 44.2025 62.6648 44.3929C62.8044 44.5256 62.9706 44.7625 62.9706 45.1368C62.9706 45.6606 62.4904 46.1135 61.9219 46.1259L59.4084 46.1806C58.8692 46.1923 58.4416 46.6389 58.4533 47.1782C58.4649 47.7102 58.8997 48.1335 59.4293 48.1335C59.4364 48.1335 59.4436 48.1335 59.451 48.1333L61.5443 48.0878C61.6126 48.2813 61.6481 48.6503 61.5044 49.0731C61.382 49.4326 61.0536 50.0358 60.2274 50.0358C59.6882 50.0358 59.2509 50.473 59.2509 51.0123C59.2509 51.5517 59.6882 51.9889 60.2274 51.9889C60.3755 51.9889 60.5208 51.9797 60.663 51.9616C60.6751 52.238 60.6182 52.5617 60.4666 52.8717C60.2873 53.2381 59.9329 53.675 59.2628 53.675C58.7235 53.675 58.2862 54.1122 58.2862 54.6516C58.2862 55.1909 58.7235 55.6281 59.2628 55.6281C59.3638 55.6281 59.4638 55.6236 59.5626 55.6148C59.56 55.8022 59.522 56.0364 59.4154 56.2927C59.2623 56.6612 58.7649 57.5184 57.4587 57.5184H51.8211C50.797 57.5184 49.7353 57.2244 48.6113 56.9132C47.7168 56.6655 46.7997 56.4118 45.8569 56.2985V44.6557C48.0555 44.2573 48.3586 42.4774 48.5858 41.1355Z"/><path fill="#fff" d="M50.0002 30.422C50.5395 30.422 50.9767 29.9848 50.9767 29.4454C50.9767 28.906 50.5395 28.4688 50.0002 28.4688H49.9995C49.4601 28.4688 49.0233 28.906 49.0233 29.4454C49.0233 29.9848 49.4608 30.422 50.0002 30.422Z"/></g><defs><clipPath id="clip0"><rect width="50" height="50" fill="#fff" transform="translate(25 23)"/></clipPath></defs></svg>