<svg width="100" height="100" viewBox="0 0 100 100" fill="none" xmlns="http://www.w3.org/2000/svg">
<circle cx="50" cy="50" r="49" fill="white" stroke="#CCCCCC" stroke-width="2"/>
<g clip-path="url(#clip0)">
<path d="M26.7583 50.3881H73.2421V57.5015H26.7583V50.3881Z" fill="#F69583"/>
<path d="M45.5394 76.0695H33.1487C32.4819 76.0695 31.9414 75.5291 31.9414 74.8623V59.8013H46.7466V74.8623C46.7466 75.5291 46.2062 76.0695 45.5394 76.0695Z" fill="#FFCEC0"/>
<path d="M66.8514 76.0695H54.4607C53.7939 76.0695 53.2534 75.5291 53.2534 74.8623V59.8013H68.0587V74.8623C68.0587 75.5291 67.5182 76.0695 66.8514 76.0695Z" fill="#FFCEC0"/>
<path d="M29.1442 51.994L25.7081 42.5534C25.1523 41.0263 23.4638 40.239 21.9369 40.7947C20.4098 41.3507 19.6224 43.0391 20.1783 44.5662L23.6143 54.0068L29.1442 51.994Z" fill="#FDB0A0"/>
<path d="M25.708 42.5538L29.1439 51.9941L25.4696 53.3315L22.0337 43.8912C21.7346 43.0696 21.1073 42.4616 20.3545 42.1628C20.684 41.5502 21.2319 41.0517 21.9366 40.7952C23.4641 40.2393 25.152 41.0264 25.708 42.5538Z" fill="#F69583"/>
<path d="M76.3857 54.0067L79.8217 44.566C80.3776 43.039 79.5902 41.3505 78.0632 40.7948C76.5362 40.239 74.8477 41.0264 74.292 42.5533L70.856 51.994L76.3857 54.0067Z" fill="#FDB0A0"/>
<path d="M79.8216 44.5665L76.3856 54.0068L73.6206 53.0003L77.0565 43.5601C77.4292 42.5361 77.1981 41.44 76.5454 40.6629C77.0381 40.575 77.5593 40.6119 78.0628 40.7952C79.5893 41.3508 80.3775 43.0391 79.8216 44.5665Z" fill="#F69583"/>
<path d="M72.3641 50.912C78.5256 44.735 78.5212 34.7332 72.3501 28.5621C66.4362 22.6481 57.0037 22.3978 50.7914 27.8103C50.3396 28.204 49.6602 28.204 49.2084 27.8103C42.9962 22.3977 33.5637 22.648 27.6497 28.5621C21.4787 34.7331 21.4744 44.735 27.6357 50.912L49.2321 72.5089C49.6561 72.9329 50.3436 72.9329 50.7676 72.5089L72.3641 50.912Z" fill="#FB4A59"/>
<path d="M72.3648 50.9116L50.7686 72.5091C50.3446 72.933 49.6561 72.933 49.2322 72.5091L46.5327 69.8083L67.1616 49.1796C73.3228 43.0026 73.3179 33.0005 67.1471 26.8296C66.0395 25.7219 64.8075 24.8125 63.4969 24.1023C66.7376 24.5818 69.8574 26.0687 72.3504 28.5616C78.5213 34.7338 78.5261 44.7347 72.3648 50.9116Z" fill="#F82F40"/>
<path d="M29.8254 56.1168C29.4289 56.0594 29.1123 55.7575 29.036 55.3642L27.5251 47.5768C27.1714 45.7484 25.2725 44.6601 23.5126 45.2868C22.0821 45.7963 21.2687 47.3101 21.5589 48.8006L23.2349 57.4108L24.004 61.3615C25.1519 67.259 30.8634 71.1092 36.7609 69.9612L39.1597 69.4942C39.6702 69.3949 40.0035 68.9006 39.9041 68.3901L39.2658 65.1111C38.3509 60.411 34.5641 56.8033 29.8254 56.1168Z" fill="#FFDFD0"/>
<path d="M39.1594 69.494L37.1036 69.8942L36.4246 66.4032C35.5094 61.7034 31.7224 58.0953 26.9836 57.4095C26.5873 57.3519 26.2708 57.0499 26.1945 56.6567L24.683 48.8689C24.4226 47.5179 23.3159 46.5706 22.0464 46.4216C22.395 45.9124 22.8962 45.5063 23.5121 45.2873C25.2724 44.66 27.1717 45.7483 27.5249 47.5764L29.0364 55.3643C29.1127 55.7574 29.4292 56.0594 29.8255 56.1171C34.5644 56.8029 38.3513 60.4109 39.2653 65.1107L39.904 68.3892C40.0036 68.8999 39.6702 69.3946 39.1594 69.494Z" fill="#FFCEC0"/>
<path d="M70.1749 56.1168C70.5713 56.0594 70.8879 55.7575 70.9642 55.3642L72.4751 47.5768C72.8288 45.7484 74.7277 44.6601 76.4876 45.2868C77.9181 45.7963 78.7315 47.3101 78.4414 48.8006L76.7654 57.4108L75.9963 61.3615C74.8483 67.259 69.1368 71.1092 63.2393 69.9612L60.8405 69.4942C60.33 69.3949 59.9968 68.9006 60.0961 68.3901L60.7345 65.1111C61.6493 60.411 65.436 56.8033 70.1749 56.1168Z" fill="#FFDFD0"/>
<path d="M78.4414 48.8001L76.7658 57.4107L75.9963 61.3617C74.8483 67.2588 69.1369 71.1089 63.2397 69.9608L62.1021 69.7394C67.3076 69.8621 71.9971 66.2231 73.0259 60.9396L73.7943 56.9886L75.471 48.3792C75.6993 47.2082 75.2451 46.0224 74.3471 45.3228C75.0043 45.0625 75.7588 45.0269 76.4882 45.2873C77.9184 45.7965 78.7315 47.3103 78.4414 48.8001Z" fill="#FFCEC0"/>
</g>
<defs>
<clipPath id="clip0">
<rect width="60" height="60" fill="white" transform="translate(20 20)"/>
</clipPath>
</defs>
</svg>
