<svg width="15" height="14" viewBox="0 0 20 20" fill="none" xmlns="http://www.w3.org/2000/svg">
    <path d="M0 13.7634C0 13.9684 0.143688 14.1293 0.348734 14.1293H0.905523C1.27964 13.3041 2.13143 12.6796 3.12045 12.6796C4.10951 12.6796 4.9611 13.3041 5.33542 14.1293H12.5727V11.1682H0V13.7634Z"
          fill="#CCCCCC"/>
    <path d="M3.12025 13.4619C2.2138 13.4619 1.479 14.1967 1.479 15.1032C1.479 16.0096 2.2138 16.7444 3.12025 16.7444C4.02626 16.7434 4.76047 16.0092 4.76149 15.1032C4.76149 14.1968 4.02669 13.4619 3.12025 13.4619Z"
          fill="#CCCCCC"/>
    <path d="M19.786 9.96193L18.2229 9.2749H13.3491V14.1292H14.2951C14.6695 13.304 15.521 12.6795 16.5101 12.6795C17.4991 12.6795 18.3509 13.304 18.725 14.1292H19.6508C19.8559 14.1292 19.9995 13.9683 19.9995 13.7632V10.315C20.0047 10.1654 19.9209 10.0268 19.786 9.96193Z"
          fill="#CCCCCC"/>
    <path d="M16.6158 6.47607C16.4208 6.10204 16.0313 5.87015 15.6095 5.87685H13.3491V8.49817H17.6653L16.6158 6.47607Z"
          fill="#CCCCCC"/>
    <path d="M11.4579 3.25562H1.10892C0.484703 3.25562 0 3.76949 0 4.39371V10.3915H12.5727V4.39371C12.5727 4.39196 12.5727 4.39021 12.5727 4.38847C12.5777 3.76784 12.0786 3.26062 11.4579 3.25562Z"
          fill="#CCCCCC"/>
    <path d="M16.5098 13.4619C15.6034 13.462 14.8686 14.1968 14.8687 15.1032C14.8687 16.0096 15.6035 16.7444 16.5099 16.7444C17.416 16.7434 18.1501 16.0092 18.1511 15.1032V15.1031C18.1511 14.1967 17.4163 13.4619 16.5098 13.4619Z"
          fill="#CCCCCC"/>
</svg>