<svg width="100" height="100" viewBox="0 0 100 100" fill="none" xmlns="http://www.w3.org/2000/svg">
<circle cx="50" cy="50" r="49" fill="white" stroke="#CCCCCC" stroke-width="2"/>
<path d="M62.1875 63.125H30.3125L28.4375 59.375H62.1875V63.125Z" fill="#CBCBCB"/>
<path d="M28.4375 35H62.1875V59.375H28.4375V35Z" fill="#FBB540"/>
<path d="M62.1875 45.3125H69.6875L73.4375 51.875L75.9447 52.5018C76.2997 52.5906 76.6148 52.7954 76.84 53.0838C77.0652 53.3722 77.1875 53.7276 77.1875 54.0935V61.25L75.3125 63.125H62.1875V45.3125Z" fill="#FBB540"/>
<path d="M69.6875 45.3125H65.9375V51.875H73.4375L69.6875 45.3125Z" fill="#CBCBCB"/>
<path d="M68.75 45.3125H65.9375V51.875H72.5L68.75 45.3125Z" fill="#EAEAE8"/>
<path d="M36.875 65.9375C38.9461 65.9375 40.625 64.2586 40.625 62.1875C40.625 60.1164 38.9461 58.4375 36.875 58.4375C34.8039 58.4375 33.125 60.1164 33.125 62.1875C33.125 64.2586 34.8039 65.9375 36.875 65.9375Z" fill="#EAEAE8"/>
<path d="M69.6875 65.9375C71.7586 65.9375 73.4375 64.2586 73.4375 62.1875C73.4375 60.1164 71.7586 58.4375 69.6875 58.4375C67.6164 58.4375 65.9375 60.1164 65.9375 62.1875C65.9375 64.2586 67.6164 65.9375 69.6875 65.9375Z" fill="#EAEAE8"/>
<path d="M36.875 66.875C35.9479 66.875 35.0416 66.6001 34.2708 66.085C33.4999 65.5699 32.8991 64.8378 32.5443 63.9813C32.1895 63.1248 32.0967 62.1823 32.2776 61.273C32.4584 60.3637 32.9049 59.5285 33.5604 58.8729C34.216 58.2174 35.0512 57.7709 35.9605 57.5901C36.8698 57.4092 37.8123 57.502 38.6688 57.8568C39.5254 58.2116 40.2574 58.8124 40.7725 59.5833C41.2876 60.3541 41.5625 61.2604 41.5625 62.1875C41.5611 63.4303 41.0668 64.6217 40.188 65.5005C39.3092 66.3793 38.1178 66.8736 36.875 66.875ZM36.875 59.375C36.3187 59.375 35.775 59.54 35.3125 59.849C34.8499 60.158 34.4895 60.5973 34.2766 61.1112C34.0637 61.6251 34.008 62.1906 34.1165 62.7362C34.2251 63.2818 34.4929 63.7829 34.8863 64.1762C35.2796 64.5696 35.7807 64.8374 36.3263 64.946C36.8719 65.0545 37.4374 64.9988 37.9513 64.7859C38.4652 64.573 38.9045 64.2125 39.2135 63.75C39.5225 63.2875 39.6875 62.7438 39.6875 62.1875C39.6866 61.4418 39.39 60.727 38.8628 60.1997C38.3355 59.6725 37.6207 59.3759 36.875 59.375Z" fill="#656666"/>
<path d="M50.9375 55.625H44.7639C44.1637 55.6243 43.5883 55.3855 43.1639 54.9611C42.7395 54.5367 42.5007 53.9613 42.5 53.3611V50.9375C42.5 50.6889 42.5988 50.4504 42.7746 50.2746C42.9504 50.0988 43.1889 50 43.4375 50C43.6861 50 43.9246 50.0988 44.1004 50.2746C44.2762 50.4504 44.375 50.6889 44.375 50.9375V53.3611C44.3751 53.4642 44.4161 53.563 44.4891 53.6359C44.562 53.7089 44.6608 53.7499 44.7639 53.75H50.9375C51.1861 53.75 51.4246 53.8488 51.6004 54.0246C51.7762 54.2004 51.875 54.4389 51.875 54.6875C51.875 54.9361 51.7762 55.1746 51.6004 55.3504C51.4246 55.5262 51.1861 55.625 50.9375 55.625Z" fill="#CBCBCB"/>
<path d="M41.5632 46.25C41.389 46.2501 41.2181 46.2016 41.0699 46.1101C40.9217 46.0185 40.8019 45.8874 40.724 45.7316L39.1081 42.5H36.875C36.6264 42.5 36.3879 42.4012 36.2121 42.2254C36.0363 42.0496 35.9375 41.8111 35.9375 41.5625C35.9375 41.3139 36.0363 41.0754 36.2121 40.8996C36.3879 40.7238 36.6264 40.625 36.875 40.625H39.6875C39.8616 40.625 40.0322 40.6735 40.1803 40.765C40.3284 40.8565 40.4481 40.9875 40.526 41.1432L42.401 44.8932C42.4724 45.0361 42.5062 45.1948 42.499 45.3544C42.4919 45.514 42.4441 45.6691 42.3602 45.805C42.2762 45.941 42.159 46.0532 42.0195 46.1311C41.88 46.2089 41.7229 46.2499 41.5632 46.25Z" fill="#CBCBCB"/>
<path d="M46.0156 56.5625C46.9217 56.5625 47.6562 55.828 47.6562 54.9219C47.6562 54.0158 46.9217 53.2812 46.0156 53.2812C45.1095 53.2812 44.375 54.0158 44.375 54.9219C44.375 55.828 45.1095 56.5625 46.0156 56.5625Z" fill="#A8A8A8"/>
<path d="M46.0156 55.625C46.404 55.625 46.7188 55.3102 46.7188 54.9219C46.7188 54.5335 46.404 54.2188 46.0156 54.2188C45.6273 54.2188 45.3125 54.5335 45.3125 54.9219C45.3125 55.3102 45.6273 55.625 46.0156 55.625Z" fill="#CBCBCB"/>
<path d="M51.1719 56.5625C52.078 56.5625 52.8125 55.828 52.8125 54.9219C52.8125 54.0158 52.078 53.2812 51.1719 53.2812C50.2658 53.2812 49.5312 54.0158 49.5312 54.9219C49.5312 55.828 50.2658 56.5625 51.1719 56.5625Z" fill="#A8A8A8"/>
<path d="M51.1719 55.625C51.5602 55.625 51.875 55.3102 51.875 54.9219C51.875 54.5335 51.5602 54.2188 51.1719 54.2188C50.7835 54.2188 50.4688 54.5335 50.4688 54.9219C50.4688 55.3102 50.7835 55.625 51.1719 55.625Z" fill="#CBCBCB"/>
<path d="M46.25 50.9375H43.4375L42.5 45.3125V40.625C42.5 40.1277 42.6975 39.6508 43.0492 39.2992C43.4008 38.9475 43.8777 38.75 44.375 38.75C44.8723 38.75 45.3492 38.9475 45.7008 39.2992C46.0525 39.6508 46.25 40.1277 46.25 40.625V50.9375Z" fill="#8F6934"/>
<path d="M46.25 41.5625H50.9375V50.9375H46.25V41.5625Z" fill="#0BAFEA"/>
<path d="M50 41.5625H50.9375V50.9375H50V41.5625Z" fill="#0A9ACD"/>
<path d="M45.3125 41.5625H46.25V50.9375H45.3125V41.5625Z" fill="#5F4623"/>
<path d="M45.7067 50.9375C45.4568 50.7919 45.3125 51.2978 45.3125 51.0085V44.9682C45.3125 44.7508 45.418 44.7168 45.5469 44.8924C46.3244 45.9575 47.1875 44.5699 47.1875 45.3125V50.9375C47.1875 51.6289 46.4375 51.3633 45.7067 50.9375Z" fill="#CBCBCB"/>
<path d="M50 50.9375C49.4823 50.9375 49.0625 51.4552 49.0625 50.9375V45.3125C49.0625 44.7948 49.4823 45.3125 50 45.3125C50.5177 45.3125 50.9375 44.7948 50.9375 45.3125V50.9375C50.9375 51.4552 50.5177 50.9375 50 50.9375Z" fill="#CBCBCB"/>
<path d="M54.6875 46.25L52.8125 50.9375H50.9375V40.625L52.8125 39.6875L54.6875 40.625V46.25Z" fill="#02A437"/>
<path d="M72.5 59.375H77.1875V61.25L75.3125 63.125H72.5V59.375Z" fill="#CBCBCB"/>
<path d="M67.8125 56.5625H65.9375C65.6889 56.5625 65.4504 56.4637 65.2746 56.2879C65.0988 56.1121 65 55.8736 65 55.625C65 55.3764 65.0988 55.1379 65.2746 54.9621C65.4504 54.7863 65.6889 54.6875 65.9375 54.6875H67.8125C68.0611 54.6875 68.2996 54.7863 68.4754 54.9621C68.6512 55.1379 68.75 55.3764 68.75 55.625C68.75 55.8736 68.6512 56.1121 68.4754 56.2879C68.2996 56.4637 68.0611 56.5625 67.8125 56.5625Z" fill="#EA9D2D"/>
<path d="M32.1875 50.9375H25.625C25.3764 50.9375 25.1379 50.8387 24.9621 50.6629C24.7863 50.4871 24.6875 50.2486 24.6875 50C24.6875 49.7514 24.7863 49.5129 24.9621 49.3371C25.1379 49.1613 25.3764 49.0625 25.625 49.0625H32.1875C32.4361 49.0625 32.6746 49.1613 32.8504 49.3371C33.0262 49.5129 33.125 49.7514 33.125 50C33.125 50.2486 33.0262 50.4871 32.8504 50.6629C32.6746 50.8387 32.4361 50.9375 32.1875 50.9375Z" fill="#D18D28"/>
<path d="M32.1875 47.1875H22.8125C22.5639 47.1875 22.3254 47.0887 22.1496 46.9129C21.9738 46.7371 21.875 46.4986 21.875 46.25C21.875 46.0014 21.9738 45.7629 22.1496 45.5871C22.3254 45.4113 22.5639 45.3125 22.8125 45.3125H32.1875C32.4361 45.3125 32.6746 45.4113 32.8504 45.5871C33.0262 45.7629 33.125 46.0014 33.125 46.25C33.125 46.4986 33.0262 46.7371 32.8504 46.9129C32.6746 47.0887 32.4361 47.1875 32.1875 47.1875Z" fill="#D18D28"/>
<path d="M31.25 43.4375H25.625C25.3764 43.4375 25.1379 43.3387 24.9621 43.1629C24.7863 42.9871 24.6875 42.7486 24.6875 42.5C24.6875 42.2514 24.7863 42.0129 24.9621 41.8371C25.1379 41.6613 25.3764 41.5625 25.625 41.5625H31.25C31.4986 41.5625 31.7371 41.6613 31.9129 41.8371C32.0887 42.0129 32.1875 42.2514 32.1875 42.5C32.1875 42.7486 32.0887 42.9871 31.9129 43.1629C31.7371 43.3387 31.4986 43.4375 31.25 43.4375Z" fill="#D18D28"/>
<path d="M77.1875 56.5625H74.375C74.1264 56.5625 73.8879 56.4637 73.7121 56.2879C73.5363 56.1121 73.4375 55.8736 73.4375 55.625C73.4375 55.3764 73.5363 55.1379 73.7121 54.9621C73.8879 54.7863 74.1264 54.6875 74.375 54.6875H77.1875V56.5625Z" fill="#FD7422"/>
<path d="M52.8126 51.875H43.4376C43.2408 51.875 43.049 51.8131 42.8894 51.6981C42.7297 51.583 42.6103 51.4207 42.5481 51.234L40.6731 45.609C40.6261 45.4681 40.6133 45.318 40.6357 45.1711C40.6581 45.0243 40.7151 44.8848 40.802 44.7643C40.8888 44.6438 41.0031 44.5457 41.1353 44.478C41.2676 44.4103 41.414 44.375 41.5626 44.375H54.6876C54.8361 44.375 54.9826 44.4103 55.1148 44.478C55.2471 44.5457 55.3613 44.6438 55.4482 44.7643C55.535 44.8848 55.592 45.0243 55.6144 45.1711C55.6368 45.318 55.624 45.4681 55.577 45.609L53.702 51.234C53.6398 51.4207 53.5204 51.583 53.3608 51.6981C53.2011 51.8131 53.0094 51.875 52.8126 51.875ZM44.1133 50H52.1369L53.3868 46.25H42.8634L44.1133 50Z" fill="#CBCBCB"/>
<path d="M62.1875 45.3125H64.0625V63.125H62.1875V45.3125Z" fill="#EA9D2D"/>
<path d="M69.6875 66.875C68.7604 66.875 67.8541 66.6001 67.0833 66.085C66.3124 65.5699 65.7116 64.8378 65.3568 63.9813C65.002 63.1248 64.9092 62.1823 65.0901 61.273C65.2709 60.3637 65.7174 59.5285 66.3729 58.8729C67.0285 58.2174 67.8637 57.7709 68.773 57.5901C69.6823 57.4092 70.6248 57.502 71.4813 57.8568C72.3379 58.2116 73.07 58.8124 73.585 59.5833C74.1001 60.3541 74.375 61.2604 74.375 62.1875C74.3736 63.4303 73.8793 64.6217 73.0005 65.5005C72.1218 66.3793 70.9303 66.8736 69.6875 66.875ZM69.6875 59.375C69.1312 59.375 68.5875 59.54 68.125 59.849C67.6625 60.158 67.302 60.5973 67.0891 61.1112C66.8762 61.6251 66.8205 62.1906 66.929 62.7362C67.0376 63.2818 67.3054 63.7829 67.6988 64.1762C68.0921 64.5696 68.5932 64.8374 69.1388 64.946C69.6844 65.0545 70.2499 64.9988 70.7638 64.7859C71.2777 64.573 71.717 64.2125 72.026 63.75C72.3351 63.2875 72.5 62.7438 72.5 62.1875C72.4991 61.4418 72.2025 60.727 71.6753 60.1997C71.148 59.6725 70.4332 59.3759 69.6875 59.375Z" fill="#656666"/>
<path d="M76.1722 51.5922L74.053 51.0625L70.5015 44.8474C70.4195 44.7039 70.301 44.5846 70.1581 44.5017C70.0151 44.4187 69.8528 44.375 69.6875 44.375H63.125V35C63.125 34.7514 63.0262 34.5129 62.8504 34.3371C62.6746 34.1613 62.4361 34.0625 62.1875 34.0625H28.4375C28.1889 34.0625 27.9504 34.1613 27.7746 34.3371C27.5988 34.5129 27.5 34.7514 27.5 35V41.5625H25.625C25.3764 41.5625 25.1379 41.6613 24.9621 41.8371C24.7863 42.0129 24.6875 42.2514 24.6875 42.5C24.6875 42.7486 24.7863 42.9871 24.9621 43.1629C25.1379 43.3387 25.3764 43.4375 25.625 43.4375H27.5V45.3125H22.8125C22.5639 45.3125 22.3254 45.4113 22.1496 45.5871C21.9738 45.7629 21.875 46.0014 21.875 46.25C21.875 46.4986 21.9738 46.7371 22.1496 46.9129C22.3254 47.0887 22.5639 47.1875 22.8125 47.1875H27.5V49.0625H25.625C25.3764 49.0625 25.1379 49.1613 24.9621 49.3371C24.7863 49.5129 24.6875 49.7514 24.6875 50C24.6875 50.2486 24.7863 50.4871 24.9621 50.6629C25.1379 50.8387 25.3764 50.9375 25.625 50.9375H27.5V59.375C27.5001 59.5189 27.5335 59.6608 27.5976 59.7896C27.598 59.7912 27.5985 59.7928 27.599 59.7943L29.474 63.5443C29.5519 63.7 29.6716 63.831 29.8197 63.9225C29.9678 64.014 30.1384 64.0625 30.3125 64.0625H32.5801C32.9446 64.8984 33.5452 65.6097 34.3081 66.1093C35.071 66.6089 35.9631 66.875 36.875 66.875C37.7869 66.875 38.679 66.6089 39.4419 66.1093C40.2048 65.6097 40.8054 64.8984 41.1699 64.0625H65.3926C65.7571 64.8984 66.3577 65.6097 67.1206 66.1093C67.8835 66.6089 68.7756 66.875 69.6875 66.875C70.5994 66.875 71.4915 66.6089 72.2544 66.1093C73.0173 65.6097 73.6179 64.8984 73.9824 64.0625H75.3125C75.4356 64.0625 75.5575 64.0383 75.6713 63.9912C75.785 63.944 75.8884 63.875 75.9754 63.7879L77.8504 61.9129C77.9375 61.8259 78.0065 61.7225 78.0536 61.6088C78.1008 61.495 78.125 61.3731 78.125 61.25V54.0935C78.1256 53.5183 77.9337 52.9596 77.5798 52.5062C77.2258 52.0529 76.7303 51.7311 76.1722 51.5922ZM66.875 46.25H69.1434L71.822 50.9375H66.875V46.25ZM32.1875 49.0625H29.375V47.1875H32.1875C32.4361 47.1875 32.6746 47.0887 32.8504 46.9129C33.0262 46.7371 33.125 46.4986 33.125 46.25C33.125 46.0014 33.0262 45.7629 32.8504 45.5871C32.6746 45.4113 32.4361 45.3125 32.1875 45.3125H29.375V43.4375H31.25C31.4986 43.4375 31.7371 43.3387 31.9129 43.1629C32.0887 42.9871 32.1875 42.7486 32.1875 42.5C32.1875 42.2514 32.0887 42.0129 31.9129 41.8371C31.7371 41.6613 31.4986 41.5625 31.25 41.5625H29.375V35.9375H61.25V58.4375H39.6845C38.8742 57.8289 37.8883 57.4999 36.875 57.4999C35.8617 57.4999 34.8758 57.8289 34.0655 58.4375H29.375V50.9375H32.1875C32.4361 50.9375 32.6746 50.8387 32.8504 50.6629C33.0262 50.4871 33.125 50.2486 33.125 50C33.125 49.7514 33.0262 49.5129 32.8504 49.3371C32.6746 49.1613 32.4361 49.0625 32.1875 49.0625ZM30.8919 62.1875L29.9544 60.3125H32.5801C32.3208 60.9036 32.1871 61.5421 32.1875 62.1875H30.8919ZM36.875 65C36.3187 65 35.775 64.8351 35.3125 64.526C34.8499 64.217 34.4895 63.7777 34.2766 63.2638C34.0637 62.7499 34.008 62.1844 34.1165 61.6388C34.2251 61.0932 34.4929 60.5921 34.8863 60.1988C35.2796 59.8054 35.7807 59.5376 36.3263 59.429C36.8719 59.3205 37.4374 59.3762 37.9513 59.5891C38.4652 59.802 38.9045 60.1624 39.2135 60.625C39.5226 61.0875 39.6875 61.6312 39.6875 62.1875C39.6866 62.9332 39.39 63.648 38.8628 64.1753C38.3355 64.7025 37.6207 64.9991 36.875 65ZM61.25 62.1875H41.5625C41.5629 61.5421 41.4292 60.9036 41.1699 60.3125H61.25V62.1875ZM63.125 62.1875V46.25H65V51.875C65 52.1236 65.0988 52.3621 65.2746 52.5379C65.4504 52.7137 65.6889 52.8125 65.9375 52.8125H73.3221L75.7174 53.4113C75.8696 53.4492 76.0048 53.5369 76.1013 53.6606C76.1978 53.7842 76.2502 53.9366 76.25 54.0935V54.6875H74.375C74.1264 54.6875 73.8879 54.7863 73.7121 54.9621C73.5363 55.1379 73.4375 55.3764 73.4375 55.625C73.4375 55.8736 73.5363 56.1121 73.7121 56.2879C73.8879 56.4637 74.1264 56.5625 74.375 56.5625H76.25V58.4375H72.497C71.8008 57.9151 70.9728 57.597 70.106 57.5188C69.2391 57.4406 68.3676 57.6054 67.5891 57.9948C66.8107 58.3842 66.1561 58.9827 65.6988 59.7232C65.2415 60.4638 64.9995 61.3171 65 62.1875H63.125ZM69.6875 65C69.1312 65 68.5875 64.8351 68.125 64.526C67.6624 64.217 67.302 63.7777 67.0891 63.2638C66.8762 62.7499 66.8205 62.1844 66.929 61.6388C67.0376 61.0932 67.3054 60.5921 67.6988 60.1988C68.0921 59.8054 68.5932 59.5376 69.1388 59.429C69.6844 59.3205 70.2499 59.3762 70.7638 59.5891C71.2777 59.802 71.717 60.1624 72.026 60.625C72.335 61.0875 72.5 61.6312 72.5 62.1875C72.4991 62.9332 72.2025 63.648 71.6753 64.1753C71.148 64.7025 70.4332 64.9991 69.6875 65ZM74.9243 62.1875H74.375C74.3754 61.5421 74.2417 60.9036 73.9824 60.3125H76.25V60.8618L74.9243 62.1875Z" fill="black"/>
<path d="M36.875 42.5H39.1081L40.694 45.6718L42.5 51.0898V53.3612C42.5006 53.9208 42.7082 54.4605 43.0828 54.8762C43.4574 55.292 43.9726 55.5545 44.5291 55.6133C44.6599 55.8959 44.8686 56.1353 45.1307 56.3036C45.3928 56.4718 45.6974 56.5618 46.0088 56.5631C46.3202 56.5644 46.6255 56.4769 46.889 56.3109C47.1525 56.1448 47.3631 55.9071 47.4963 55.6256H49.6912C49.8403 55.9397 50.0854 56.1984 50.3911 56.3642C50.6967 56.53 51.0472 56.5944 51.3918 56.5481C51.7365 56.5018 52.0575 56.3471 52.3085 56.1065C52.5596 55.8659 52.7277 55.5517 52.7886 55.2094C52.8495 54.867 52.8 54.5141 52.6474 54.2017C52.4947 53.8893 52.2467 53.6334 51.9391 53.4711C51.6316 53.3088 51.2805 53.2484 50.9364 53.2986C50.5923 53.3489 50.273 53.5071 50.0247 53.7506H47.1628C46.8565 53.4501 46.4446 53.2818 46.0156 53.2818C45.5866 53.2818 45.1747 53.4501 44.8685 53.7506H44.7639C44.6607 53.7505 44.5618 53.7094 44.4888 53.6363C44.4159 53.5633 44.375 53.4643 44.375 53.3611V51.875H52.8125C53.0093 51.875 53.2011 51.8131 53.3607 51.6981C53.5203 51.583 53.6397 51.4207 53.702 51.234L55.577 45.609C55.5775 45.6071 55.5779 45.6052 55.5785 45.6034C55.6002 45.5368 55.6143 45.4679 55.6207 45.3982C55.6217 45.3864 55.625 40.625 55.625 40.625C55.625 40.4509 55.5765 40.2803 55.485 40.1322C55.3935 39.9841 55.2625 39.8644 55.1068 39.7865L53.2318 38.849C53.1016 38.7839 52.9581 38.75 52.8125 38.75C52.6669 38.75 52.5234 38.7839 52.3932 38.849L50.5182 39.7865C50.3625 39.8644 50.2315 39.9841 50.14 40.1322C50.0485 40.2803 50 40.4509 50 40.625H47.1875C47.1875 39.8791 46.8912 39.1637 46.3637 38.6363C45.8363 38.1088 45.1209 37.8125 44.375 37.8125C43.6291 37.8125 42.9137 38.1088 42.3863 38.6363C41.8588 39.1637 41.5625 39.8791 41.5625 40.625V43.2163L40.526 41.1432C40.4481 40.9875 40.3284 40.8565 40.1803 40.765C40.0322 40.6735 39.8616 40.625 39.6875 40.625H36.875C36.6264 40.625 36.3879 40.7238 36.2121 40.8996C36.0363 41.0754 35.9375 41.3139 35.9375 41.5625C35.9375 41.8111 36.0363 42.0496 36.2121 42.2254C36.3879 42.4012 36.6264 42.5 36.875 42.5ZM47.1875 46.25H49.0625V50H47.1875V46.25ZM45.3125 50H44.1132L42.8633 46.25H45.3125V50ZM52.1368 50H50.9375V46.25H53.3867L52.1368 50ZM51.875 41.2044L52.8125 40.7356L53.75 41.2044V44.375H51.875V41.2044ZM50 42.5V44.375H47.1875V42.5H50ZM43.4375 40.625C43.4375 40.3764 43.5363 40.1379 43.7121 39.9621C43.8879 39.7863 44.1264 39.6875 44.375 39.6875C44.6236 39.6875 44.8621 39.7863 45.0379 39.9621C45.2137 40.1379 45.3125 40.3764 45.3125 40.625V44.375H43.4375V40.625Z" fill="black"/>
<path d="M68.75 55.625C68.75 55.3764 68.6512 55.1379 68.4754 54.9621C68.2996 54.7863 68.0611 54.6875 67.8125 54.6875H65.9375C65.6889 54.6875 65.4504 54.7863 65.2746 54.9621C65.0988 55.1379 65 55.3764 65 55.625C65 55.8736 65.0988 56.1121 65.2746 56.2879C65.4504 56.4637 65.6889 56.5625 65.9375 56.5625H67.8125C68.0611 56.5625 68.2996 56.4637 68.4754 56.2879C68.6512 56.1121 68.75 55.8736 68.75 55.625Z" fill="black"/>
</svg>
