<svg width="100" height="100" viewBox="0 0 100 100" fill="none" xmlns="http://www.w3.org/2000/svg">
<path d="M99 50C99 77.062 77.062 99 50 99C22.938 99 1 77.062 1 50C1 22.938 22.938 1 50 1C77.062 1 99 22.938 99 50Z" fill="white" stroke="#CCCCCC" stroke-width="2"/>
<g clip-path="url(#clip0)">
<path d="M25.0486 54.361C23.3162 56.0963 20.3436 55.0415 20.123 52.6074C19.3526 44.1077 22.1952 35.3313 28.6539 28.8301C38.7181 18.697 54.288 17.2822 65.8764 24.6011C66.4076 24.9368 67.1035 24.8499 67.5489 24.4038L70.1187 21.8297C70.9703 20.9767 72.4276 21.5734 72.4277 22.777L72.439 33.6421C72.4394 34.3891 71.8323 34.9972 71.0844 34.999L60.2038 35.0215C58.9997 35.0241 58.3967 33.5715 59.2493 32.7175L61.3356 30.6277C61.978 29.9842 61.8218 28.8983 61.0165 28.4809C51.869 23.739 40.2895 25.2476 32.6741 32.9927C27.5428 38.2126 25.2791 45.231 25.8835 52.0336C25.9599 52.8942 25.661 53.7475 25.0486 54.361Z" fill="#B3E59F"/>
<path d="M62.9827 22.9933C62.4798 22.7495 61.9715 22.5204 61.4583 22.3064C61.7256 22.4637 61.9917 22.6239 62.255 22.7903C62.4787 22.9316 62.7316 22.9971 62.9827 22.9933Z" fill="#95D6A4"/>
<path d="M61.4257 28.8094C61.4241 28.808 61.4223 28.8063 61.4207 28.8049C61.4217 28.8062 61.4228 28.8076 61.4238 28.8089C61.4245 28.8091 61.4251 28.8093 61.4257 28.8094Z" fill="#95D6A4"/>
<path d="M25.8837 52.0334C25.457 47.1323 26.4956 41.9482 29.2354 37.4231C35.8706 26.3288 50.1251 22.7172 61.1267 28.5465C45.279 15.0826 27.1417 28.3813 23.379 40.485C21.1635 46.819 23.1155 51.3872 21.427 52.55C21.0776 52.9 20.6774 53.1347 20.26 53.2692C20.8142 55.1118 23.5586 55.9818 25.0488 54.3609C25.5216 53.9123 25.9811 52.9531 25.8837 52.0334Z" fill="#95D6A4"/>
<path d="M72.428 22.7769C72.4279 21.5735 70.9705 20.9767 70.1189 21.8297L68.8086 23.1423L68.8176 31.8312C68.818 32.5781 68.2109 33.1862 67.463 33.1881L58.9336 33.2057C58.6254 34.032 59.209 35.0235 60.2041 35.0214L71.0848 34.9989C71.8327 34.997 72.4398 34.3889 72.4394 33.642L72.428 22.7769Z" fill="#95D6A4"/>
<path d="M74.2292 41.3574C75.8128 39.7712 78.5248 40.4942 79.0761 42.6581C81.9336 53.8741 78.1049 66.2703 68.3932 73.7701C57.0875 82.4983 41.4755 81.8599 30.9575 73.0794C30.4757 72.6775 29.7751 72.6708 29.275 73.055L26.3905 75.2711C25.4339 76.0048 24.0696 75.2221 24.2265 74.0283L25.6451 63.2498C25.7432 62.5081 26.4245 61.985 27.1669 62.0815L37.9491 63.4874C39.1429 63.6435 39.5479 65.1629 38.5922 65.8975L36.2496 67.6969C35.5274 68.2517 35.5405 69.3493 36.2835 69.868C44.7222 75.7723 56.3936 75.7961 64.956 69.1128C72.7079 63.0626 75.7583 53.1166 73.4701 44.1148C73.2191 43.1282 73.5072 42.0806 74.2292 41.3574Z" fill="#B3E59F"/>
<path d="M79.0763 42.6581C78.5528 40.6034 76.082 39.8493 74.478 41.1363C74.9362 41.502 75.291 42.016 75.4545 42.6581C78.312 53.8741 74.4832 66.2703 64.7714 73.77C59.8481 77.5709 54.1083 79.5948 48.3281 79.9444C55.2956 80.3628 62.4411 78.3652 68.3932 73.77C78.105 66.2703 81.9338 53.8741 79.0763 42.6581Z" fill="#95D6A4"/>
<path d="M58.5936 49.5182C59.7673 43.1285 54.6726 35.3887 45.5069 32.2687C45.015 32.1012 44.5232 32.5104 44.5999 33.0244C44.7652 34.1335 44.8238 35.5088 44.5315 37.0238C44.1075 39.2204 43.2502 40.1322 42.4713 42.0193C41.4709 44.4426 40.8167 47.9464 41.56 50.5736C43.1675 56.2549 51.3602 58.0302 51.973 58.1549C53.4256 57.2604 57.7037 54.3626 58.5936 49.5182Z" fill="#B3E59F"/>
<path d="M45.5068 32.2687C45.0149 32.1012 44.5231 32.5106 44.5997 33.0244C44.6181 33.1481 44.635 33.2756 44.6505 33.4056C52.0567 37.0095 56.0216 43.8034 54.9718 49.5182C54.2511 53.4414 51.3088 56.0875 49.4441 57.4272C50.7659 57.8976 51.7729 58.1143 51.9729 58.1549C53.4256 57.2604 57.7036 54.3626 58.5936 49.5182C59.7672 43.1284 54.6725 35.3887 45.5068 32.2687Z" fill="#95D6A4"/>
<path d="M53.8391 47.0812C54.6772 45.714 54.8575 44.3443 54.8612 43.436C54.8632 42.9359 54.4596 42.5289 53.9594 42.5268C53.9581 42.5268 53.957 42.5268 53.9557 42.5268C53.4575 42.5268 53.0524 42.9298 53.0504 43.4286C53.0475 44.1465 52.8446 45.3322 52.1743 46.3225C51.5867 43.9625 50.7272 41.667 49.5976 39.4604C49.3697 39.0151 48.8241 38.839 48.3792 39.067C47.934 39.2948 47.7579 39.8404 47.9858 40.2854C49.4484 43.1429 50.435 46.1561 50.9299 49.269C49.6472 48.0813 48.1936 47.093 46.6132 46.3331C46.1628 46.1165 45.6215 46.3063 45.4047 46.7568C45.1882 47.2075 45.3779 47.7486 45.8285 47.9652C47.0711 48.5624 48.229 49.3188 49.27 50.213C49.9882 50.8297 50.6526 51.5158 51.25 52.2541C51.6188 58.7337 49.7881 64.023 48.1455 67.3702C47.9253 67.819 48.1106 68.3616 48.5595 68.5819C49 68.7981 49.5482 68.6222 49.7713 68.1679C52.5774 62.4506 54.0337 56.5435 52.6414 48.5364C53.1072 48.1065 53.5093 47.6192 53.8391 47.0812Z" fill="#78C2A4"/>
</g>
<defs>
<clipPath id="clip0">
<rect width="60" height="60" fill="white" transform="translate(20 20)"/>
</clipPath>
</defs>
</svg>
