<svg xmlns="http://www.w3.org/2000/svg" width="14" height="15" fill="none" viewBox="0 0 14 15"><g clip-path="url(#clip0)"><path fill="#333" d="M3.5 7.5H2.625V5.75H3.5V7.5ZM5.25 7.5H4.375V5.75H5.25V7.5ZM7 7.5H6.125V5.75H7V7.5ZM3.5 10.125H2.625V8.375H3.5V10.125ZM5.25 10.125H4.375V8.375H5.25V10.125ZM7 10.125H6.125V8.375H7V10.125ZM9.625 5.75C10.1081 5.75 10.5615 5.84115 10.9854 6.02344C11.4092 6.20573 11.7806 6.4541 12.0996 6.76855C12.4186 7.08301 12.6693 7.45443 12.8516 7.88281C13.0339 8.3112 13.125 8.76693 13.125 9.25V14.5H12.25V9.25C12.25 8.88997 12.1816 8.55046 12.0449 8.23145C11.9082 7.91244 11.7214 7.63444 11.4844 7.39746C11.2474 7.16048 10.9671 6.97135 10.6436 6.83008C10.32 6.6888 9.98047 6.62044 9.625 6.625H8.75V14.5H5.25V11.875H4.375V14.5H0.875V4H1.75V2.25H3.5V0.5H6.125V2.25H7.875V4H8.75V5.75H9.625ZM4.375 2.25H5.25V1.375H4.375V2.25ZM2.625 4H7V3.125H2.625V4ZM7.875 4.875H1.75V13.625H3.5V11H6.125V13.625H7.875V4.875ZM9.625 8.375H11.375V9.25H9.625V8.375ZM9.625 10.125H11.375V11H9.625V10.125ZM9.625 11.875H11.375V12.75H9.625V11.875ZM9.625 13.625H11.375V14.5H9.625V13.625Z"/></g><defs><clipPath id="clip0"><rect width="14" height="14" fill="#fff" transform="translate(0 0.5)"/></clipPath></defs></svg>