<svg xmlns="http://www.w3.org/2000/svg" width="101" height="97" fill="none" viewBox="0 0 101 97"><path fill="#FF602E" d="M100 49.7112C95 99.7112 78 100.711 50 93.7111C22 86.7111 -7.33137e-06 74.7113 0 49.7112C7.33137e-06 24.7111 18.0001 18.711 39.5001 5.71107C61.0001 -7.28889 105 -0.288834 100 49.7112Z"/><g clip-path="url(#clip0)"><path fill="#fff" d="M71.6753 48.6476C71.4741 48.236 71.4741 47.7639 71.6753 47.3524L73.5401 43.5375C74.5784 41.4134 73.7558 38.8816 71.6673 37.7736L67.9163 35.7833C67.5117 35.5687 67.2342 35.1867 67.155 34.7356L66.4214 30.5531C66.0129 28.2244 63.8588 26.6596 61.5183 26.9907L57.314 27.5854C56.8601 27.6495 56.4114 27.5036 56.0822 27.1851L53.0304 24.2328C51.3311 22.5889 48.669 22.5888 46.9698 24.2328L43.9178 27.1854C43.5885 27.504 43.1398 27.6496 42.6861 27.5857L38.4817 26.991C36.1404 26.6596 33.9871 28.2247 33.5786 30.5534L32.8451 34.7357C32.7659 35.1868 32.4884 35.5688 32.0838 35.7835L28.3329 37.7737C26.2444 38.8817 25.4218 41.4137 26.46 43.5378L28.3248 47.3526C28.5259 47.7642 28.5259 48.2363 28.3248 48.6478L26.4599 52.4626C25.4217 54.5867 26.2443 57.1185 28.3328 58.2266L32.0837 60.2168C32.4884 60.4314 32.7659 60.8135 32.8451 61.2645L33.5786 65.447C33.9505 67.5669 35.7683 69.0536 37.8574 69.0535C38.0632 69.0535 38.272 69.039 38.4818 69.0093L42.6862 68.4146C43.1396 68.3502 43.5886 68.4964 43.9179 68.8149L46.9698 71.7672C47.8196 72.5893 48.9096 73.0002 50 73.0001C51.0902 73 52.1809 72.5891 53.0303 71.7672L56.0822 68.8149C56.4115 68.4964 56.8603 68.3509 57.314 68.4146L61.5183 69.0093C63.8599 69.3406 66.0129 67.7756 66.4214 65.4469L67.1551 61.2646C67.2343 60.8135 67.5117 60.4315 67.9163 60.2168L71.6673 58.2266C73.7558 57.1186 74.5784 54.5866 73.5401 52.4625L71.6753 48.6476ZM70.3156 55.679L66.5647 57.6692C65.3688 58.3039 64.5486 59.4326 64.3147 60.7662L63.5811 64.9486C63.4429 65.7365 62.7145 66.2657 61.9222 66.1539L57.7179 65.5591C56.377 65.3692 55.0503 65.8007 54.0772 66.742L51.0252 69.6943C50.4504 70.2503 49.5497 70.2503 48.9747 69.6943L45.9229 66.7419C45.1005 65.9463 44.0253 65.5152 42.9028 65.5152C42.6971 65.5152 42.4898 65.5296 42.2822 65.559L38.0778 66.1538C37.2862 66.2657 36.5572 65.7364 36.419 64.9485L35.6853 60.766C35.4513 59.4324 34.6312 58.3036 33.4352 57.6691L29.6842 55.6789C28.9776 55.304 28.6993 54.4475 29.0505 53.7288L30.9154 49.9139C31.5099 48.6975 31.5099 47.3024 30.9154 46.086L29.0505 42.2711C28.6993 41.5524 28.9776 40.6959 29.6842 40.321L33.4352 38.3308C34.6311 37.6961 35.4513 36.5674 35.6852 35.2338L36.4188 31.0514C36.557 30.2635 37.2854 29.7342 38.0776 29.8462L42.282 30.4409C43.6223 30.6306 44.9496 30.1993 45.9227 29.258L48.9746 26.3056C49.5494 25.7496 50.4501 25.7496 51.0251 26.3056L54.077 29.258C55.0501 30.1994 56.3771 30.6306 57.7177 30.4409L61.922 29.8462C62.7137 29.7341 63.4427 30.2635 63.5809 31.0514L64.3145 35.2339C64.5485 36.5675 65.3686 37.6963 66.5646 38.3308L70.3155 40.321C71.0222 40.6959 71.3005 41.5524 70.9492 42.2711L69.0844 46.0859C68.4899 47.3022 68.4899 48.6975 69.0844 49.9138L70.9492 53.7286C71.3006 54.4475 71.0223 55.3041 70.3156 55.679Z"/><path fill="#fff" d="M60.5356 37.4644C59.9726 36.9013 59.0595 36.9013 58.4965 37.4644L39.4644 56.4965C38.9013 57.0596 38.9013 57.9725 39.4644 58.5356C39.746 58.8172 40.115 58.958 40.484 58.958C40.8529 58.958 41.222 58.8173 41.5035 58.5356L60.5355 39.5036C61.0988 38.9404 61.0988 38.0275 60.5356 37.4644Z"/><path fill="#fff" d="M44.2324 35.023C41.3172 35.023 38.9454 37.3947 38.9454 40.31C38.9454 43.2252 41.3172 45.5969 44.2324 45.5969C47.1476 45.5969 49.5194 43.2252 49.5194 40.31C49.5194 37.3947 47.1476 35.023 44.2324 35.023ZM44.2324 42.7131C42.9073 42.7131 41.8293 41.635 41.8293 40.3099C41.8293 38.9848 42.9073 37.9068 44.2324 37.9068C45.5575 37.9068 46.6356 38.9848 46.6356 40.3099C46.6355 41.635 45.5575 42.7131 44.2324 42.7131Z"/><path fill="#fff" d="M55.7675 50.4032C52.8522 50.4032 50.4805 52.7749 50.4805 55.6902C50.4805 58.6054 52.8522 60.9771 55.7675 60.9771C58.6827 60.9771 61.0544 58.6054 61.0544 55.6902C61.0544 52.7749 58.6827 50.4032 55.7675 50.4032ZM55.7675 58.0933C54.4424 58.0933 53.3642 57.0152 53.3642 55.6902C53.3642 54.3651 54.4423 53.287 55.7675 53.287C57.0925 53.287 58.1706 54.3651 58.1706 55.6902C58.1706 57.0152 57.0925 58.0933 55.7675 58.0933Z"/></g><defs><clipPath id="clip0"><rect width="50" height="50" fill="#fff" transform="translate(25 23)"/></clipPath></defs></svg>