<svg xmlns="http://www.w3.org/2000/svg" width="47" height="47" fill="none" viewBox="0 0 47 47"><circle cx="23.5" cy="23.5" r="22.5" fill="#fff" stroke="#CCC" stroke-width="2"/><g clip-path="url(#clip0)"><path fill="#F69583" d="M12.5771 23.6824H34.4245V27.0257H12.5771V23.6824Z"/><path fill="#FFCEC0" d="M21.4037 35.7526H15.5801C15.2667 35.7526 15.0127 35.4986 15.0127 35.1852V28.1066H21.9712V35.1852C21.9712 35.4986 21.7171 35.7526 21.4037 35.7526Z"/><path fill="#FFCEC0" d="M31.4203 35.7527H25.5967C25.2833 35.7527 25.0293 35.4986 25.0293 35.1852V28.1066H31.9878V35.1852C31.9878 35.4986 31.7337 35.7527 31.4203 35.7527Z"/><path fill="#FDB0A0" d="M13.6981 24.4371L12.0832 20C11.822 19.2823 11.0284 18.9123 10.3107 19.1735C9.59301 19.4348 9.22294 20.2283 9.48417 20.9461L11.0991 25.3832L13.6981 24.4371Z"/><path fill="#F69583" d="M12.0835 20.0003L13.6984 24.4372L11.9715 25.0657L10.3566 20.6288C10.216 20.2427 9.9212 19.9569 9.56738 19.8165C9.72226 19.5286 9.97975 19.2943 10.311 19.1737C11.0289 18.9124 11.8222 19.2824 12.0835 20.0003Z"/><path fill="#FDB0A0" d="M35.9017 25.3831L37.5167 20.946C37.7779 20.2283 37.4078 19.4347 36.6902 19.1735C35.9724 18.9123 35.1789 19.2824 34.9177 20L33.3027 24.4371L35.9017 25.3831Z"/><path fill="#F69583" d="M37.517 20.9462L35.9021 25.3831L34.6025 24.9101L36.2174 20.4732C36.3926 19.9919 36.284 19.4768 35.9772 19.1115C36.2088 19.0702 36.4537 19.0876 36.6904 19.1737C37.4078 19.4348 37.7783 20.2283 37.517 20.9462Z"/><path fill="#FB4A59" d="M34.012 23.9286C36.9079 21.0254 36.9058 16.3245 34.0054 13.4241C31.2258 10.6446 26.7926 10.5269 23.8728 13.0708C23.6605 13.2558 23.3411 13.2558 23.1288 13.0708C20.2091 10.5269 15.7758 10.6445 12.9962 13.4241C10.0958 16.3245 10.0938 21.0254 12.9896 23.9286L23.1399 34.0791C23.3392 34.2784 23.6623 34.2784 23.8616 34.0791L34.012 23.9286Z"/><path fill="#F82F40" d="M34.0122 23.9284L23.8619 34.0792C23.6627 34.2785 23.3391 34.2785 23.1399 34.0792L21.8711 32.8099L31.5667 23.1144C34.4624 20.2112 34.4601 15.5102 31.5598 12.6099C31.0393 12.0893 30.4603 11.6618 29.8443 11.328C31.3674 11.5534 32.8337 12.2522 34.0054 13.4239C36.9057 16.3248 36.908 21.0253 34.0122 23.9284Z"/><path fill="#FFDFD0" d="M14.0182 26.3749C13.8318 26.3479 13.683 26.206 13.6472 26.0211L12.937 22.361C12.7708 21.5017 11.8783 20.9902 11.0512 21.2848C10.3788 21.5242 9.99653 22.2357 10.1329 22.9362L10.9206 26.983L11.2821 28.8399C11.8217 31.6117 14.5061 33.4213 17.2779 32.8817L18.4053 32.6623C18.6452 32.6155 18.8019 32.3832 18.7552 32.1433L18.4552 30.6022C18.0252 28.3931 16.2454 26.6975 14.0182 26.3749Z"/><path fill="#FFCEC0" d="M18.4044 32.6621L17.4382 32.8502L17.1191 31.2094C16.6889 29.0005 14.9091 27.3047 12.6818 26.9824C12.4955 26.9553 12.3468 26.8134 12.3109 26.6286L11.6005 22.9683C11.4781 22.3333 10.958 21.8881 10.3613 21.8181C10.5252 21.5788 10.7608 21.3879 11.0502 21.285C11.8776 20.9901 12.7702 21.5017 12.9362 22.3609L13.6466 26.0211C13.6825 26.2059 13.8312 26.3479 14.0175 26.375C16.2448 26.6973 18.0246 28.3931 18.4542 30.602L18.7544 32.1429C18.8012 32.3829 18.6445 32.6154 18.4044 32.6621Z"/><path fill="#FFDFD0" d="M32.9825 26.3749C33.1689 26.3479 33.3177 26.206 33.3535 26.0211L34.0637 22.361C34.2299 21.5017 35.1224 20.9902 35.9495 21.2848C36.6219 21.5242 37.0042 22.2357 36.8678 22.9362L36.0801 26.983L35.7186 28.8399C35.1791 31.6117 32.4947 33.4213 29.7228 32.8817L28.5954 32.6623C28.3555 32.6155 28.1988 32.3832 28.2455 32.1433L28.5456 30.6022C28.9755 28.3931 30.7553 26.6975 32.9825 26.3749Z"/><path fill="#FFCEC0" d="M36.868 22.936L36.0805 26.983L35.7188 28.8399C35.1792 31.6116 32.4949 33.4211 29.7232 32.8815L29.1885 32.7775C31.6351 32.8351 33.8392 31.1248 34.3227 28.6416L34.6838 26.7846L35.4719 22.7382C35.5792 22.1878 35.3657 21.6305 34.9436 21.3017C35.2525 21.1794 35.6072 21.1626 35.95 21.285C36.6221 21.5243 37.0043 22.2358 36.868 22.936Z"/></g><defs><clipPath id="clip0"><rect width="28.2" height="28.2" fill="#fff" transform="translate(9.40039 9.39996)"/></clipPath></defs></svg>