<svg width="101" height="97" viewBox="0 0 101 97" fill="none" xmlns="http://www.w3.org/2000/svg">
<path d="M100 49.7112C95 99.7112 78 100.711 50 93.7111C22 86.7111 -7.33137e-06 74.7113 0 49.7112C7.33137e-06 24.7111 18.0001 18.711 39.5001 5.71107C61.0001 -7.28889 105 -0.288834 100 49.7112Z" fill="#FFD600"/>
<g clip-path="url(#clip0)">
<path d="M74.7111 58.7521L72.3274 56.3879C71.9443 56.0079 71.326 56.0105 70.9461 56.3935C70.5661 56.7766 70.5687 57.395 70.9517 57.7749L73.3353 60.1392C73.5258 60.3281 73.7745 60.4225 74.0231 60.4225C74.2744 60.4225 74.5257 60.3261 74.7166 60.1335C75.0967 59.7505 75.0941 59.132 74.7111 58.7521Z" fill="white"/>
<path d="M69.8986 53.9689C69.5172 53.5874 68.8989 53.5874 68.5173 53.9689L68.5156 53.9705C68.1342 54.352 68.1351 54.9696 68.5165 55.3511C68.7069 55.5416 68.9568 55.6368 69.2066 55.6368C69.457 55.6368 69.7076 55.5412 69.8985 55.3503C70.28 54.9689 70.28 54.3504 69.8986 53.9689Z" fill="white"/>
<path d="M61.5716 58.4727L71.047 48.9974C72.482 47.5622 72.482 45.2271 71.0469 43.7919C70.5408 43.2858 69.9227 42.9591 69.2718 42.81C69.495 42.3301 69.6132 41.8034 69.6132 41.2584C69.6132 40.2752 69.2303 39.3509 68.5351 38.6558C67.9899 38.1105 67.3035 37.7583 66.5585 37.6314C66.9779 36.3535 66.6814 34.8899 65.6671 33.8757C65.1094 33.3181 64.4157 32.9782 63.6918 32.854C63.8131 32.4859 63.877 32.0973 63.877 31.6984C63.877 30.7152 63.4941 29.7909 62.799 29.0958C62.1038 28.4007 61.1795 28.0178 60.1964 28.0178C59.5721 28.0178 58.9718 28.1727 58.4385 28.4635L58.3442 28.3622C57.1194 27.046 55.3857 26.2912 53.588 26.2912H45.9181C45.3787 26.2912 44.9413 26.7286 44.9413 27.268V28.5488C44.9413 29.0614 45.028 29.5605 45.1938 30.0297C44.752 29.8462 44.274 29.7498 43.7812 29.7498C42.798 29.7498 41.8737 30.1327 41.1785 30.8278C40.1637 31.8427 39.8675 33.3073 40.2879 34.5856C39.5634 34.7096 38.8687 35.0496 38.3105 35.6077C37.6154 36.3029 37.2325 37.2272 37.2325 38.2104C37.2325 38.6084 37.2963 38.9965 37.4171 39.3638C36.6729 39.491 35.9872 39.843 35.4425 40.3878C34.3217 41.5086 34.0763 43.1785 34.7062 44.5397C34.0391 44.6922 33.4265 45.0281 32.9306 45.5239C31.4955 46.959 31.4955 49.2941 32.9306 50.7293L34.8792 52.6778L25.286 62.2708C24.9046 62.6522 24.9046 63.2707 25.286 63.6522C25.4767 63.8429 25.7267 63.9384 25.9766 63.9384C26.2266 63.9384 26.4766 63.843 26.6673 63.6522L36.353 53.9665C36.9014 54.2794 37.5236 54.4468 38.1722 54.4468C39.1553 54.4468 40.0796 54.0639 40.7748 53.3686C41.5301 52.6135 41.8873 51.6089 41.8475 50.6175C41.8971 50.6195 41.9466 50.621 41.9961 50.621C42.9385 50.6209 43.8813 50.2621 44.5987 49.5447C45.2938 48.8495 45.6767 47.9252 45.6767 46.9421C45.6767 46.8924 45.6751 46.843 45.6731 46.7936C45.7221 46.7955 45.771 46.7971 45.82 46.7971C46.7625 46.7971 47.7052 46.4383 48.4226 45.7208C49.1178 45.0256 49.5007 44.1013 49.5007 43.1182C49.5007 43.0685 49.499 43.019 49.4971 42.9696C49.546 42.9716 49.5949 42.9731 49.6439 42.9731C50.5865 42.9731 51.5291 42.6144 52.2466 41.8969C53.595 40.5484 53.6762 38.4056 52.4907 36.9611L58.9745 30.4773C59.3008 30.151 59.7344 29.9714 60.1958 29.9714C60.6572 29.9714 61.0909 30.151 61.4172 30.4773C61.7434 30.8036 61.923 31.2372 61.923 31.6986C61.923 32.16 61.7434 32.5938 61.4171 32.9199L60.4611 33.8759L56.9926 37.3444C56.6111 37.7259 56.6111 38.3443 56.9926 38.7259C57.1833 38.9165 57.4333 39.012 57.6832 39.012C57.9331 39.012 58.1831 38.9166 58.3738 38.7259L61.8424 35.2573C62.5157 34.5839 63.6115 34.5838 64.285 35.2572C64.9585 35.9308 64.9585 37.0265 64.285 37.7L63.329 38.6561L60.8165 41.1686C60.435 41.55 60.435 42.1685 60.8165 42.55C61.0072 42.7406 61.2572 42.8361 61.5071 42.8361C61.757 42.8361 62.007 42.7407 62.1977 42.55L64.7102 40.0375C65.0365 39.7111 65.4702 39.5315 65.9315 39.5315C66.393 39.5315 66.8266 39.7111 67.1529 40.0375C67.4792 40.3638 67.6588 40.7974 67.6588 41.2588C67.6588 41.7201 67.4792 42.1539 67.1528 42.4801L65.8406 43.7923L64.6403 44.9926C64.2589 45.374 64.2589 45.9925 64.6403 46.374C64.831 46.5646 65.081 46.6602 65.3309 46.6602C65.5808 46.6602 65.8308 46.5647 66.0216 46.374L67.2227 45.1729C67.8963 44.5005 68.9914 44.5006 69.6645 45.1737C70.3381 45.8472 70.3381 46.943 69.6645 47.6165L60.1891 57.0918C57.8098 59.4712 54.6476 60.8486 51.285 60.9707C51.0379 60.9797 50.8031 61.0821 50.6285 61.2575L41.8754 70.0431C41.4946 70.4252 41.4957 71.0436 41.8779 71.4244C42.0684 71.6143 42.3179 71.7093 42.5673 71.7093C42.8178 71.7093 43.0684 71.6135 43.2592 71.4219L49.6973 64.96C51.3327 66.0091 53.2559 66.5079 55.2115 66.3786L60.2504 71.4176C60.4411 71.6082 60.6911 71.7037 60.941 71.7037C61.191 71.7037 61.4409 71.6083 61.6316 71.4176C62.0131 71.0361 62.0131 70.4177 61.6316 70.0361L56.2742 64.6781C56.0714 64.4754 55.7895 64.3718 55.5037 64.3952L55.194 64.4206C53.7646 64.5378 52.3517 64.2247 51.1182 63.5334L51.7459 62.9034C55.4584 62.6744 58.9342 61.1102 61.5716 58.4727ZM39.3935 51.9874C39.0673 52.3138 38.6335 52.4934 38.1723 52.4934C37.7108 52.4934 37.2771 52.3138 36.951 51.9874L34.3117 49.3482C33.6383 48.6748 33.6383 47.579 34.3117 46.9055C34.638 46.5791 35.0718 46.3995 35.5331 46.3995C35.9944 46.3995 36.4282 46.5791 36.7544 46.9055L39.3936 49.5446C40.067 50.2181 40.067 51.3139 39.3935 51.9874ZM43.2177 48.1633C42.5441 48.8367 41.4481 48.8367 40.7749 48.1633L38.1356 45.524L36.8233 44.2117C36.1499 43.5383 36.1499 42.4425 36.8233 41.769C37.1496 41.4427 37.5834 41.2631 38.0446 41.2631C38.506 41.2631 38.9397 41.4427 39.2659 41.769L43.2174 45.7205C43.2174 45.7205 43.2174 45.7205 43.2175 45.7205C43.5438 46.0469 43.7234 46.4806 43.7234 46.9419C43.7234 47.4032 43.5438 47.837 43.2177 48.1633ZM47.0416 44.3393C46.3681 45.0126 45.2722 45.0127 44.5988 44.3393L39.6913 39.4317C39.365 39.1055 39.1854 38.6719 39.1854 38.2105C39.1854 37.7491 39.365 37.3153 39.6914 36.9892C40.0281 36.6524 40.4705 36.4841 40.9127 36.4841C41.3547 36.4841 41.7966 36.6522 42.1332 36.9884L44.3699 39.2251L47.0414 41.8966H47.0415C47.3677 42.2229 47.5473 42.6564 47.5473 43.1179C47.5474 43.5793 47.3679 44.0131 47.0416 44.3393ZM50.8656 40.5152C50.1922 41.1887 49.0964 41.1887 48.4229 40.5152L43.5154 35.6077C43.5149 35.6072 43.5143 35.6067 43.5138 35.6062L42.5594 34.6518C41.8859 33.9782 41.8859 32.8825 42.5594 32.209C42.8961 31.8722 43.3385 31.7038 43.7807 31.7038C44.223 31.7038 44.6654 31.8722 45.002 32.209L50.8654 38.0724C51.1918 38.3986 51.3714 38.8323 51.3714 39.2937C51.3715 39.7552 51.192 40.1891 50.8656 40.5152ZM51.1224 35.5668L48.4396 32.884C48.7438 32.9489 49.0566 32.9834 49.375 32.9833C49.3821 32.9833 49.3893 32.9833 49.3966 32.9833L52.077 32.9707C52.6164 32.9682 53.0517 32.5288 53.0492 31.9894C53.0467 31.4515 52.6098 31.0172 52.0725 31.0172C52.071 31.0172 52.0694 31.0172 52.0679 31.0172L49.3874 31.0298C49.3833 31.0298 49.3794 31.0298 49.3753 31.0298C48.7148 31.0298 48.0936 30.7734 47.6253 30.3073C47.154 29.8382 46.8945 29.2138 46.8945 28.5487V28.2446H53.5877C54.845 28.2446 56.0574 28.7725 56.914 29.693L56.9538 29.7356L51.1224 35.5668Z" fill="white"/>
</g>
<defs>
<clipPath id="clip0">
<rect width="50" height="50" fill="white" transform="translate(25 24)"/>
</clipPath>
</defs>
</svg>
