<svg xmlns="http://www.w3.org/2000/svg" width="177" height="50" fill="none" viewBox="0 0 177 50"><path fill="#333" d="M18.7492 34.461C20.2069 36.1514 20.9358 38.1519 20.9358 40.4626C20.9358 43.0369 20.0286 45.2313 18.2141 47.0457C16.3997 48.8602 14.2053 49.7674 11.631 49.7674H3.02406C2.18663 49.7674 1.47326 49.4727 0.883956 48.8834C0.294652 48.2941 0 47.5807 0 46.7433V25.3423C0 24.5048 0.294652 23.7915 0.883956 23.2022C1.47326 22.6129 2.18663 22.3182 3.02406 22.3182H11.631C13.8797 22.3182 15.7949 23.1169 17.3767 24.7142C18.974 26.296 19.7727 28.2113 19.7727 30.4599C19.7727 31.9332 19.4315 33.2669 18.7492 34.461ZM6.04812 28.3663V33.0187H11.3519C12.0032 33.0187 12.5537 32.7939 13.0035 32.3441C13.4532 31.8944 13.6781 31.3439 13.6781 30.6925C13.6781 30.0567 13.4532 29.5139 13.0035 29.0642C12.5537 28.599 12.0032 28.3663 11.3519 28.3663H6.04812ZM6.04812 38.6016V43.7193H12.2823C12.9337 43.7193 13.523 43.4556 14.0502 42.9283C14.5775 42.4011 14.8412 41.8118 14.8412 41.1604C14.8412 40.5246 14.5775 39.9431 14.0502 39.4158C13.523 38.873 12.9337 38.6016 12.2823 38.6016H6.04812Z"/><path fill="#333" d="M26.0534 20.6899C26.8909 20.6899 27.6042 20.9845 28.1935 21.5738C28.7828 22.1631 29.0775 22.8765 29.0775 23.7139C29.0775 24.5514 28.7828 25.2647 28.1935 25.854C27.6042 26.4433 26.8909 26.738 26.0534 26.738C25.216 26.738 24.5026 26.4433 23.9133 25.854C23.324 25.2647 23.0294 24.5514 23.0294 23.7139C23.0294 22.8765 23.324 22.1631 23.9133 21.5738C24.5026 20.9845 25.216 20.6899 26.0534 20.6899ZM28.9612 47.0922C28.9612 47.8987 28.6743 48.5888 28.1005 49.1626C27.5422 49.7208 26.8599 50 26.0534 50C25.247 50 24.5569 49.7208 23.9831 49.1626C23.4248 48.5888 23.1457 47.8987 23.1457 47.0922V31.9719C23.1457 31.1655 23.4248 30.4832 23.9831 29.9249C24.5569 29.3511 25.247 29.0642 26.0534 29.0642C26.8599 29.0642 27.5422 29.3511 28.1005 29.9249C28.6743 30.4832 28.9612 31.1655 28.9612 31.9719V47.0922Z"/><path fill="#333" d="M37.2192 35.3449V47.0922C37.2192 47.8987 36.9323 48.5888 36.3585 49.1626C35.8002 49.7208 35.1179 50 34.3114 50C33.505 50 32.8149 49.7208 32.2411 49.1626C31.6828 48.5888 31.4037 47.8987 31.4037 47.0922V31.9719C31.4037 31.1655 31.6828 30.4832 32.2411 29.9249C32.8149 29.3511 33.505 29.0642 34.3114 29.0642C35.1179 29.0642 35.8855 29.4984 36.6144 30.3669C37.5759 29.4984 38.863 29.0642 40.4759 29.0642C41.7785 29.0642 42.7633 29.3976 43.4301 30.0645C44.097 30.7313 44.4304 31.561 44.4304 32.5535C44.4304 33.546 44.1358 34.3757 43.5465 35.0425C42.9572 35.7094 42.1662 36.0428 41.1737 36.0428C40.1812 36.0428 39.3128 35.7481 38.5684 35.1588C37.9636 34.8022 37.5138 34.8642 37.2192 35.3449Z"/><path fill="#333" d="M56.7593 44.1845C58.0464 44.1845 59.1398 43.7348 60.0392 42.8353C60.9542 41.9203 61.4117 40.8193 61.4117 39.5321C61.4117 38.2449 60.9542 37.1516 60.0392 36.2522C59.1398 35.3372 58.0464 34.8797 56.7593 34.8797C55.4721 34.8797 54.371 35.3372 53.4561 36.2522C52.5566 37.1516 52.1069 38.2449 52.1069 39.5321C52.1069 40.8193 52.5566 41.9203 53.4561 42.8353C54.371 43.7348 55.4721 44.1845 56.7593 44.1845ZM61.8769 48.6973C60.3571 49.5658 58.6512 50 56.7593 50C53.8593 50 51.3857 48.9842 49.3387 46.9527C47.3071 44.9056 46.2914 42.4321 46.2914 39.5321C46.2914 36.6321 47.3071 34.1663 49.3387 32.1348C51.3857 30.0877 53.8593 29.0642 56.7593 29.0642C58.4652 29.0642 60.016 29.4131 61.4117 30.111V24.7607C61.4117 23.9543 61.6908 23.272 62.2491 22.7137C62.8229 22.1399 63.513 21.853 64.3194 21.853C65.1258 21.853 65.8082 22.1399 66.3665 22.7137C66.9403 23.272 67.2272 23.9543 67.2272 24.7607V47.0922C67.2272 47.8987 66.9403 48.5888 66.3665 49.1626C65.8082 49.7208 65.1258 50 64.3194 50C63.513 50 62.8307 49.7131 62.2724 49.1393C62.1173 48.9997 61.9855 48.8524 61.8769 48.6973Z"/><path fill="#333" d="M79.7887 44.1845C81.0758 44.1845 82.1691 43.7348 83.0686 42.8353C83.9836 41.9203 84.441 40.8193 84.441 39.5321C84.441 38.2449 83.9836 37.1516 83.0686 36.2522C82.1691 35.3372 81.0758 34.8797 79.7887 34.8797C78.5015 34.8797 77.4004 35.3372 76.4854 36.2522C75.586 37.1516 75.1363 38.2449 75.1363 39.5321C75.1363 40.8193 75.586 41.9203 76.4854 42.8353C77.4004 43.7348 78.5015 44.1845 79.7887 44.1845ZM84.9063 48.6973C83.3865 49.5658 81.6806 50 79.7887 50C76.8887 50 74.4151 48.9842 72.3681 46.9527C70.3365 44.9056 69.3207 42.4321 69.3207 39.5321C69.3207 36.6321 70.3365 34.1663 72.3681 32.1348C74.4151 30.0877 76.8887 29.0642 79.7887 29.0642C81.6806 29.0642 83.3865 29.4984 84.9063 30.3669C85.0148 30.2118 85.1467 30.0567 85.3017 29.9016C85.86 29.3433 86.5424 29.0642 87.3488 29.0642C88.1552 29.0642 88.8376 29.3511 89.3959 29.9249C89.9697 30.4832 90.2565 31.1655 90.2565 31.9719V47.0922C90.2565 47.8987 89.9697 48.5888 89.3959 49.1626C88.8376 49.7208 88.1552 50 87.3488 50C86.5424 50 85.86 49.7131 85.3017 49.1393C85.1467 48.9997 85.0148 48.8524 84.9063 48.6973Z"/><path fill="#333" d="M98.3982 38.369V47.0922C98.3982 47.8987 98.1114 48.5888 97.5376 49.1626C96.9793 49.7208 96.2969 50 95.4905 50C94.6841 50 93.994 49.7208 93.4202 49.1626C92.8619 48.5888 92.5827 47.8987 92.5827 47.0922V31.9719C92.5827 31.1655 92.8619 30.4832 93.4202 29.9249C93.994 29.3511 94.6841 29.0642 95.4905 29.0642C96.2969 29.0642 96.987 29.3433 97.5608 29.9016C97.5918 29.9482 97.6228 29.9947 97.6539 30.0412C98.9255 29.3899 100.337 29.0642 101.888 29.0642C104.384 29.0642 106.517 29.9016 108.285 31.5765C110.053 29.9016 112.185 29.0642 114.682 29.0642C117.271 29.0642 119.466 29.9714 121.265 31.7859C123.079 33.5848 123.986 35.7792 123.986 38.369V47.0922C123.986 47.8987 123.7 48.5888 123.126 49.1626C122.567 49.7208 121.885 50 121.079 50C120.272 50 119.582 49.7208 119.008 49.1626C118.45 48.5888 118.171 47.8987 118.171 47.0922V38.369C118.171 37.392 117.83 36.5701 117.147 35.9032C116.481 35.2209 115.659 34.8797 114.682 34.8797C113.705 34.8797 112.875 35.2209 112.193 35.9032C111.526 36.5701 111.192 37.392 111.192 38.369V47.0922C111.192 47.8987 110.905 48.5888 110.332 49.1626C109.773 49.7208 109.091 50 108.285 50C107.478 50 106.788 49.7208 106.214 49.1626C105.656 48.5888 105.377 47.8987 105.377 47.0922V38.369C105.377 37.392 105.036 36.5701 104.353 35.9032C103.686 35.2209 102.865 34.8797 101.888 34.8797C100.911 34.8797 100.081 35.2209 99.3985 35.9032C98.7317 36.5701 98.3982 37.392 98.3982 38.369Z"/><path fill="#333" d="M132.128 47.0922C132.128 47.8987 131.841 48.5888 131.267 49.1626C130.709 49.7208 130.027 50 129.22 50C128.414 50 127.724 49.7208 127.15 49.1626C126.592 48.5888 126.313 47.8987 126.313 47.0922V24.7607C126.313 23.9543 126.592 23.272 127.15 22.7137C127.724 22.1399 128.414 21.853 129.22 21.853C130.027 21.853 130.709 22.1399 131.267 22.7137C131.841 23.272 132.128 23.9543 132.128 24.7607V47.0922Z"/><path fill="#333" d="M137.478 20.6899C138.316 20.6899 139.029 20.9845 139.618 21.5738C140.208 22.1631 140.502 22.8765 140.502 23.7139C140.502 24.5514 140.208 25.2647 139.618 25.854C139.029 26.4433 138.316 26.738 137.478 26.738C136.641 26.738 135.928 26.4433 135.338 25.854C134.749 25.2647 134.454 24.5514 134.454 23.7139C134.454 22.8765 134.749 22.1631 135.338 21.5738C135.928 20.9845 136.641 20.6899 137.478 20.6899ZM140.386 47.0922C140.386 47.8987 140.099 48.5888 139.525 49.1626C138.967 49.7208 138.285 50 137.478 50C136.672 50 135.982 49.7208 135.408 49.1626C134.85 48.5888 134.571 47.8987 134.571 47.0922V31.9719C134.571 31.1655 134.85 30.4832 135.408 29.9249C135.982 29.3511 136.672 29.0642 137.478 29.0642C138.285 29.0642 138.967 29.3511 139.525 29.9249C140.099 30.4832 140.386 31.1655 140.386 31.9719V47.0922Z"/><path fill="#333" d="M148.644 42.4864V47.0922C148.644 47.8987 148.357 48.5888 147.783 49.1626C147.225 49.7208 146.543 50 145.736 50C144.93 50 144.24 49.7208 143.666 49.1626C143.108 48.5888 142.829 47.8987 142.829 47.0922V24.7607C142.829 23.9543 143.108 23.272 143.666 22.7137C144.24 22.1399 144.93 21.853 145.736 21.853C146.543 21.853 147.225 22.1399 147.783 22.7137C148.357 23.272 148.644 23.9543 148.644 24.7607V36.1358L154.878 29.9249C155.452 29.3511 156.135 29.0642 156.925 29.0642C157.732 29.0642 158.422 29.3511 158.996 29.9249C159.57 30.4832 159.856 31.1655 159.856 31.9719C159.856 32.7784 159.562 33.4607 158.972 34.019L153.669 39.2995L159.414 45.0452C160.004 45.6035 160.298 46.2858 160.298 47.0922C160.298 47.8987 160.012 48.581 159.438 49.1393C158.864 49.7131 158.174 50 157.367 50C156.577 50 155.902 49.7131 155.344 49.1393L148.644 42.4864Z"/><path fill="#333" d="M164.297 17.5675C164.297 17.2621 164.544 17.0145 164.85 17.0145H165.956C166.261 17.0145 166.509 17.2621 166.509 17.5675V21.9912C166.509 22.2966 166.261 22.5442 165.956 22.5442H164.85C164.544 22.5442 164.297 22.2966 164.297 21.9912V17.5675Z"/><path fill="#333" fill-rule="evenodd" d="M164.85 16.5891H165.956C166.496 16.5891 166.934 17.0271 166.934 17.5675V21.9912C166.934 22.5315 166.496 22.9696 165.956 22.9696H164.85C164.309 22.9696 163.871 22.5315 163.871 21.9912V17.5675C163.871 17.0271 164.309 16.5891 164.85 16.5891ZM164.85 17.0145C164.544 17.0145 164.297 17.2621 164.297 17.5675V21.9912C164.297 22.2966 164.544 22.5442 164.85 22.5442H165.956C166.261 22.5442 166.509 22.2966 166.509 21.9912V17.5675C166.509 17.2621 166.261 17.0145 165.956 17.0145H164.85Z" clip-rule="evenodd"/><path fill="#333" d="M164.297 17.5675C164.297 17.2621 164.544 17.0145 164.85 17.0145H165.956C166.261 17.0145 166.509 17.2621 166.509 17.5675V21.9912C166.509 22.2966 166.261 22.5442 165.956 22.5442H164.85C164.544 22.5442 164.297 22.2966 164.297 21.9912V17.5675Z"/><path fill="#333" fill-rule="evenodd" d="M164.85 16.5891H165.956C166.496 16.5891 166.934 17.0271 166.934 17.5675V21.9912C166.934 22.5315 166.496 22.9696 165.956 22.9696H164.85C164.309 22.9696 163.871 22.5315 163.871 21.9912V17.5675C163.871 17.0271 164.309 16.5891 164.85 16.5891ZM164.85 17.0145C164.544 17.0145 164.297 17.2621 164.297 17.5675V21.9912C164.297 22.2966 164.544 22.5442 164.85 22.5442H165.956C166.261 22.5442 166.509 22.2966 166.509 21.9912V17.5675C166.509 17.2621 166.261 17.0145 165.956 17.0145H164.85Z" clip-rule="evenodd"/><path fill="#333" d="M164.297 0.978333C164.297 0.672936 164.544 0.425362 164.85 0.425362H165.956C166.261 0.425362 166.509 0.672936 166.509 0.978333V5.4021C166.509 5.7075 166.261 5.95507 165.956 5.95507H164.85C164.544 5.95507 164.297 5.7075 164.297 5.4021V0.978333Z"/><path fill="#333" fill-rule="evenodd" d="M164.85 0H165.956C166.496 0 166.934 0.438015 166.934 0.978333V5.4021C166.934 5.94242 166.496 6.38043 165.956 6.38043H164.85C164.309 6.38043 163.871 5.94242 163.871 5.4021V0.978333C163.871 0.438015 164.309 0 164.85 0ZM164.85 0.425362C164.544 0.425362 164.297 0.672936 164.297 0.978333V5.4021C164.297 5.7075 164.544 5.95507 164.85 5.95507H165.956C166.261 5.95507 166.509 5.7075 166.509 5.4021V0.978333C166.509 0.672936 166.261 0.425362 165.956 0.425362H164.85Z" clip-rule="evenodd"/><path fill="#333" d="M171.485 12.5907C171.18 12.5907 170.932 12.3431 170.932 12.0378V10.9318C170.932 10.6264 171.18 10.3788 171.485 10.3788L175.909 10.3788C176.215 10.3788 176.462 10.6264 176.462 10.9318V12.0378C176.462 12.3431 176.215 12.5907 175.909 12.5907H171.485Z"/><path fill="#333" fill-rule="evenodd" d="M170.507 12.0378V10.9318C170.507 10.3915 170.945 9.95348 171.485 9.95348L175.909 9.95347C176.45 9.95347 176.888 10.3915 176.888 10.9318V12.0378C176.888 12.5781 176.45 13.0161 175.909 13.0161H171.485C170.945 13.0161 170.507 12.5781 170.507 12.0378ZM170.932 12.0378C170.932 12.3431 171.18 12.5907 171.485 12.5907H175.909C176.215 12.5907 176.462 12.3431 176.462 12.0378V10.9318C176.462 10.6264 176.215 10.3788 175.909 10.3788L171.485 10.3788C171.18 10.3788 170.932 10.6264 170.932 10.9318V12.0378Z" clip-rule="evenodd"/><path fill="#333" d="M154.896 12.5907C154.591 12.5907 154.343 12.3431 154.343 12.0378L154.343 10.9318C154.343 10.6264 154.591 10.3788 154.896 10.3788L159.32 10.3788C159.625 10.3788 159.873 10.6264 159.873 10.9318V12.0378C159.873 12.3431 159.625 12.5907 159.32 12.5907H154.896Z"/><path fill="#333" fill-rule="evenodd" d="M153.918 12.0378L153.918 10.9318C153.918 10.3915 154.356 9.95348 154.896 9.95348L159.32 9.95347C159.86 9.95347 160.298 10.3915 160.298 10.9318V12.0378C160.298 12.5781 159.86 13.0161 159.32 13.0161H154.896C154.356 13.0161 153.918 12.5781 153.918 12.0378ZM154.343 12.0378C154.343 12.3431 154.591 12.5907 154.896 12.5907H159.32C159.625 12.5907 159.873 12.3431 159.873 12.0378V10.9318C159.873 10.6264 159.625 10.3788 159.32 10.3788L154.896 10.3788C154.591 10.3788 154.343 10.6264 154.343 10.9318L154.343 12.0378Z" clip-rule="evenodd"/><path fill="#333" d="M168.922 16.5679C168.706 16.352 168.706 16.0019 168.922 15.7859L169.704 15.0039C169.92 14.788 170.27 14.788 170.486 15.0039L173.614 18.132C173.83 18.3479 173.83 18.698 173.614 18.914L172.832 19.696C172.616 19.912 172.266 19.912 172.05 19.696L168.922 16.5679Z"/><path fill="#333" fill-rule="evenodd" d="M168.621 15.4851L169.403 14.7031C169.785 14.3211 170.405 14.3211 170.787 14.7031L173.915 17.8312C174.297 18.2133 174.297 18.8327 173.915 19.2148L173.133 19.9968C172.751 20.3789 172.131 20.3789 171.749 19.9968L168.621 16.8687C168.239 16.4867 168.239 15.8672 168.621 15.4851ZM168.922 15.7859C168.706 16.0019 168.706 16.352 168.922 16.5679L172.05 19.696C172.266 19.912 172.616 19.912 172.832 19.696L173.614 18.914C173.83 18.698 173.83 18.3479 173.614 18.132L170.486 15.0039C170.27 14.788 169.92 14.788 169.704 15.0039L168.922 15.7859Z" clip-rule="evenodd"/><path fill="#333" d="M157.192 4.83761C156.976 4.62167 156.976 4.27154 157.192 4.0556L157.974 3.27358C158.19 3.05763 158.54 3.05763 158.756 3.27358L161.884 6.40165C162.1 6.6176 162.1 6.96772 161.884 7.18367L161.102 7.96569C160.886 8.18164 160.536 8.18164 160.32 7.96569L157.192 4.83761Z"/><path fill="#333" fill-rule="evenodd" d="M156.891 3.75482L157.673 2.9728C158.055 2.59074 158.674 2.59074 159.056 2.9728L162.185 6.10088C162.567 6.48294 162.567 7.10239 162.185 7.48445L161.403 8.26647C161.02 8.64853 160.401 8.64853 160.019 8.26647L156.891 5.13839C156.509 4.75633 156.509 4.13688 156.891 3.75482ZM157.192 4.0556C156.976 4.27154 156.976 4.62167 157.192 4.83761L160.32 7.96569C160.536 8.18164 160.886 8.18164 161.102 7.96569L161.884 7.18367C162.1 6.96772 162.1 6.6176 161.884 6.40165L158.756 3.27358C158.54 3.05763 158.19 3.05763 157.974 3.27358L157.192 4.0556Z" clip-rule="evenodd"/><path fill="#333" d="M160.32 15.0039C160.536 14.7879 160.886 14.7879 161.102 15.0039L161.884 15.7859C162.1 16.0018 162.1 16.3519 161.884 16.5679L158.756 19.696C158.54 19.9119 158.19 19.9119 157.974 19.696L157.192 18.9139C156.976 18.698 156.976 18.3479 157.192 18.1319L160.32 15.0039Z"/><path fill="#333" fill-rule="evenodd" d="M161.402 14.7031L162.184 15.4851C162.567 15.8672 162.567 16.4866 162.184 16.8687L159.056 19.9967C158.674 20.3788 158.055 20.3788 157.673 19.9967L156.891 19.2147C156.509 18.8327 156.509 18.2132 156.891 17.8312L160.019 14.7031C160.401 14.321 161.02 14.321 161.402 14.7031ZM161.102 15.0039C160.886 14.7879 160.536 14.7879 160.32 15.0039L157.192 18.1319C156.976 18.3479 156.976 18.698 157.192 18.9139L157.974 19.696C158.19 19.9119 158.54 19.9119 158.756 19.696L161.884 16.5679C162.1 16.3519 162.1 16.0018 161.884 15.7859L161.102 15.0039Z" clip-rule="evenodd"/><path fill="#333" d="M172.05 3.27364C172.266 3.05769 172.616 3.05769 172.832 3.27364L173.614 4.05566C173.83 4.2716 173.83 4.62173 173.614 4.83767L170.486 7.96575C170.27 8.1817 169.92 8.1817 169.704 7.96575L168.922 7.18373C168.706 6.96778 168.706 6.61766 168.922 6.40171L172.05 3.27364Z"/><path fill="#333" fill-rule="evenodd" d="M173.133 2.97286L173.915 3.75488C174.297 4.13694 174.297 4.75639 173.915 5.13845L170.787 8.26653C170.405 8.64859 169.785 8.64859 169.403 8.26653L168.621 7.48451C168.239 7.10244 168.239 6.483 168.621 6.10093L171.749 2.97286C172.131 2.5908 172.751 2.5908 173.133 2.97286ZM172.832 3.27364C172.616 3.05769 172.266 3.05769 172.05 3.27364L168.922 6.40171C168.706 6.61766 168.706 6.96778 168.922 7.18373L169.704 7.96575C169.92 8.1817 170.27 8.1817 170.486 7.96575L173.614 4.83767C173.83 4.62173 173.83 4.2716 173.614 4.05566L172.832 3.27364Z" clip-rule="evenodd"/></svg>