<svg width="15" height="17" viewBox="0 0 15 17" fill="none" xmlns="http://www.w3.org/2000/svg">
<path d="M10.04 9.98584C10.7926 10.2459 11.4705 10.6084 12.0737 11.0732C12.6769 11.5381 13.1916 12.0804 13.6177 12.7002C14.0438 13.32 14.3703 13.9924 14.5972 14.7173C14.8241 15.4422 14.9375 16.2031 14.9375 17H13.875C13.875 16.0924 13.7145 15.2513 13.3936 14.4766C13.0726 13.7018 12.6243 13.0267 12.0488 12.4512C11.4733 11.8757 10.8009 11.4302 10.0317 11.1147C9.26253 10.7993 8.41862 10.6361 7.5 10.625C6.90788 10.625 6.33789 10.6997 5.79004 10.8491C5.24219 10.9985 4.73307 11.2088 4.2627 11.48C3.79232 11.7511 3.36344 12.0804 2.97607 12.4678C2.5887 12.8551 2.25944 13.284 1.98828 13.7544C1.71712 14.2248 1.50407 14.7367 1.34912 15.29C1.19417 15.8434 1.11947 16.4134 1.125 17H0.0625C0.0625 16.2031 0.178711 15.4422 0.411133 14.7173C0.643555 13.9924 0.972819 13.3228 1.39893 12.7085C1.82503 12.0942 2.33968 11.5575 2.94287 11.0981C3.54606 10.6388 4.22396 10.2708 4.97656 9.99414C4.54492 9.76172 4.15755 9.47949 3.81445 9.14746C3.47135 8.81543 3.18083 8.44743 2.94287 8.04346C2.70492 7.63949 2.51953 7.20508 2.38672 6.74023C2.25391 6.27539 2.1875 5.79948 2.1875 5.3125C2.1875 4.5765 2.32585 3.88753 2.60254 3.24561C2.87923 2.60368 3.2583 2.03923 3.73975 1.55225C4.22119 1.06527 4.78288 0.686198 5.4248 0.415039C6.06673 0.14388 6.75846 0.00553385 7.5 0C8.236 0 8.92497 0.138346 9.56689 0.415039C10.2088 0.691732 10.7733 1.0708 11.2603 1.55225C11.7472 2.03369 12.1263 2.59538 12.3975 3.2373C12.6686 3.87923 12.807 4.57096 12.8125 5.3125C12.8125 5.79948 12.7489 6.27262 12.6216 6.73193C12.4943 7.19124 12.3089 7.62288 12.0654 8.02686C11.8219 8.43083 11.5314 8.79883 11.1938 9.13086C10.8563 9.46289 10.4717 9.74788 10.04 9.98584ZM3.25 5.3125C3.25 5.89909 3.36068 6.44971 3.58203 6.96436C3.80339 7.479 4.10775 7.92725 4.49512 8.30908C4.88249 8.69092 5.3335 8.99528 5.84814 9.22217C6.36279 9.44906 6.91341 9.5625 7.5 9.5625C8.08659 9.5625 8.63721 9.45182 9.15186 9.23047C9.6665 9.00911 10.1147 8.70475 10.4966 8.31738C10.8784 7.93001 11.1828 7.479 11.4097 6.96436C11.6366 6.44971 11.75 5.89909 11.75 5.3125C11.75 4.72591 11.6393 4.17529 11.418 3.66064C11.1966 3.146 10.8923 2.69775 10.5049 2.31592C10.1175 1.93408 9.6665 1.62972 9.15186 1.40283C8.63721 1.17594 8.08659 1.0625 7.5 1.0625C6.91341 1.0625 6.36279 1.17318 5.84814 1.39453C5.3335 1.61589 4.88525 1.92025 4.50342 2.30762C4.12158 2.69499 3.81722 3.146 3.59033 3.66064C3.36344 4.17529 3.25 4.72591 3.25 5.3125Z" fill="#333333"/>
</svg>
