<svg width="100" height="100" viewBox="0 0 100 100" fill="none" xmlns="http://www.w3.org/2000/svg">
<circle cx="50" cy="50" r="49" fill="white" stroke="#CCCCCC" stroke-width="2"/>
<g clip-path="url(#clip0)">
<path d="M29.5506 33.7402C29.4861 33.6758 29.4623 33.581 29.4887 33.4937L30.4863 30.2008C30.5009 30.1529 30.5012 30.1015 30.4862 30.0538C30.3418 29.594 30.1283 29.1649 29.8577 28.7786C28.9663 27.5059 27.4557 26.6985 25.7624 26.7968C23.4075 26.9334 21.5034 28.8551 21.387 31.2111C21.3185 32.5954 21.8548 33.8554 22.7544 34.7505H22.7543L29.5397 41.6906C29.6768 41.8308 29.9147 41.7634 29.9578 41.5721L31.2947 35.6477C31.3133 35.565 31.2884 35.4784 31.2284 35.4184L29.5506 33.7402Z" fill="#DD5790"/>
<path d="M41.1865 34.7503C42.0861 33.8552 42.6225 32.5953 42.5539 31.2109C42.4373 28.8548 40.5334 26.9332 38.1784 26.7965C36.5481 26.7019 35.0872 27.4469 34.1851 28.6383C34.1223 28.7213 34.1233 28.8348 34.1798 28.9221C34.4048 29.2701 34.5848 29.65 34.7115 30.0535C34.7265 30.1012 34.7262 30.1528 34.7116 30.2006L33.714 33.4934C33.6875 33.5807 33.7113 33.6755 33.7759 33.74L35.4538 35.4179C35.5138 35.4779 35.5389 35.5645 35.5201 35.6472L34.2752 41.1641C34.2204 41.4072 34.5191 41.5696 34.6933 41.3914L41.1865 34.7503Z" fill="#DD5790"/>
<path d="M31.2283 35.4181L29.5504 33.7402C29.4859 33.6758 29.4622 33.581 29.4885 33.4937L30.4861 30.2008C30.5007 30.1529 30.501 30.1015 30.486 30.0538C30.3417 29.594 30.1281 29.1649 29.8575 28.7786C29.0266 27.5921 27.6577 26.81 26.1043 26.789C26.1495 26.8475 26.1933 26.907 26.2359 26.9676C26.5065 27.3539 26.72 27.783 26.8643 28.2427C26.8793 28.2904 26.879 28.342 26.8645 28.3898L25.8668 31.6827C25.8404 31.77 25.8642 31.8648 25.9287 31.9292L27.6066 33.6071C27.6666 33.6671 27.6917 33.7537 27.6729 33.8365L26.5831 38.6663L29.5397 41.6904C29.6768 41.8305 29.9147 41.7631 29.9579 41.5719L31.2947 35.6475C31.3133 35.5647 31.2883 35.4781 31.2283 35.4181Z" fill="#DA387D"/>
<path d="M42.5538 31.2108C42.4372 28.8549 40.5332 26.9331 38.1782 26.7965C38.1051 26.7923 38.0322 26.7897 37.9598 26.7888C38.5278 27.5201 38.8837 28.4226 38.9321 29.3998C39.0005 30.7843 38.4643 32.0442 37.5646 32.9392H37.5648L35.2958 35.2599L35.4537 35.4179C35.5137 35.4779 35.5388 35.5645 35.5201 35.6472L34.2752 41.164C34.2203 41.4072 34.519 41.5697 34.6933 41.3914L41.1864 34.7502H41.1863C42.086 33.8552 42.6222 32.5953 42.5538 31.2108Z" fill="#DA387D"/>
<path d="M67.5635 24.4162C67.4744 24.5054 67.3519 24.5513 67.2259 24.5464C66.1894 24.5063 65.1475 24.6365 64.1458 24.9372V24.9373L51.3539 28.365C50.3254 28.6406 49.6102 29.5727 49.6102 30.6375C49.6102 32.1845 51.0776 33.3104 52.5717 32.91L55.3301 32.1709L46.1761 41.3248C45.2574 42.2436 45.2574 43.7333 46.1761 44.652C47.0949 45.5709 48.5846 45.5709 49.5034 44.652L47.5569 46.5985C46.6548 47.5006 46.588 48.9703 47.4575 49.9039C48.3702 50.8841 49.9054 50.9046 50.8443 49.9657L52.8307 47.9792C51.8918 48.9181 51.9123 50.4533 52.8925 51.3661C53.8261 52.2355 55.2958 52.1687 56.1979 51.2666L58.3806 49.0838C57.4619 50.0026 57.4619 51.4923 58.3806 52.411C59.2994 53.3298 60.7891 53.3298 61.7078 52.411L73.5146 40.6043L73.5148 40.604C75.4453 38.6734 76.3616 36.1126 76.2638 33.5838C76.2589 33.4578 76.3048 33.3354 76.394 33.2463L79.9267 29.7136C79.9737 29.6666 80.0001 29.6028 80.0001 29.5365V20.2505C80.0002 20.1121 79.888 20 79.7496 20H72.0835C72.017 20 71.9533 20.0264 71.9064 20.0734L67.5635 24.4162Z" fill="#FFCBBE"/>
<path d="M30.0999 77.2524C30.1753 77.1771 30.2789 77.1382 30.3854 77.1423C32.5241 77.225 34.6897 76.4501 36.3225 74.8174L46.3077 64.8322C47.0847 64.0551 47.0847 62.7954 46.3077 62.0183C45.5306 61.2412 44.2708 61.2412 43.4937 62.0183L45.3337 60.1783C46.0913 59.4207 46.1609 58.1867 45.4399 57.3943C44.67 56.5483 43.3592 56.5251 42.5596 57.3247L44.2395 55.6447C45.0391 54.8451 45.0159 53.5343 44.1699 52.7645C43.3775 52.0434 42.1435 52.113 41.3859 52.8706L39.7457 54.5108C40.5228 53.7337 40.5228 52.4739 39.7457 51.6969C38.9687 50.9198 37.7089 50.9198 36.9318 51.6969L29.1903 59.4384L29.8154 57.1057C30.1539 55.8419 29.2018 54.601 27.8935 54.601C26.9929 54.601 26.2047 55.2058 25.9716 56.0757L23.0729 66.8938H23.0728C22.8185 67.7409 22.7083 68.622 22.7422 69.4986C22.7463 69.6051 22.7075 69.7087 22.632 69.7841L20.0734 72.3432C20.0264 72.3902 20 72.4538 20 72.5203V79.7495C20 79.8879 20.1121 80 20.2505 80H27.2487C27.3152 80 27.3789 79.9736 27.4258 79.9267L30.0999 77.2524Z" fill="#FFCBBE"/>
<path d="M79.7494 20H75.1709V24.6686C75.1709 26.3061 74.5204 27.8765 73.3626 29.0345L73.1521 29.2449C72.1612 30.2359 71.545 31.5287 71.3407 32.9151C71.0563 34.8454 70.1713 36.7044 68.6856 38.1901L68.6854 38.1903L54.9382 51.9372C55.401 51.8468 55.843 51.6213 56.1975 51.2669L58.3803 49.0842C57.4615 50.0029 57.4615 51.4926 58.3803 52.4114C59.299 53.3301 60.7887 53.3301 61.7074 52.4114L73.5142 40.6046L73.5144 40.6044C75.445 38.6737 76.3613 36.1129 76.2634 33.5841C76.2585 33.4582 76.3044 33.3357 76.3936 33.2466L79.9264 29.7139C79.9733 29.6669 79.9997 29.6033 79.9997 29.5368V20.2505C79.9999 20.1121 79.8878 20 79.7494 20V20Z" fill="#EAAC9D"/>
<path d="M46.3077 62.0184C45.5306 61.2413 44.2708 61.2413 43.4937 62.0184L45.3337 60.1784C45.9009 59.6113 46.0824 58.7771 45.8354 58.0611L31.4935 72.4031C30.2185 73.678 28.6186 74.43 26.9602 74.6588C25.8371 74.8139 24.7913 75.3178 23.9895 76.1195C23.0507 77.0582 21.7776 77.5856 20.45 77.5856H20V79.7496C20 79.8879 20.1121 80 20.2505 80H27.2487C27.3152 80 27.3789 79.9736 27.4258 79.9266L30.1 77.2524C30.1754 77.1771 30.279 77.1382 30.3855 77.1423C32.5242 77.225 34.6898 76.45 36.3226 74.8174L46.3078 64.8322C47.0847 64.0552 47.0847 62.7955 46.3077 62.0184Z" fill="#EAAC9D"/>
<path d="M66.4857 31.4377C66.4857 30.9377 66.0803 30.5323 65.5803 30.5323C65.0803 30.5323 64.6749 30.9377 64.6749 31.4377C64.6749 33.1413 63.2889 34.5273 61.5854 34.5273C60.1864 34.5273 58.9587 33.5847 58.5996 32.2351C58.5378 32.0028 58.3862 31.8047 58.178 31.6843C57.97 31.5639 57.723 31.5311 57.4906 31.5932L55.3301 32.1711L52.7712 34.73L57.1645 33.5551C57.9666 35.2298 59.6756 36.3383 61.5853 36.3383C64.2874 36.3382 66.4857 34.1398 66.4857 31.4377Z" fill="#EAAC9D"/>
<path d="M56.9607 37.1949L47.5529 46.6029C46.7651 47.3942 46.6179 48.6195 47.1789 49.5377L58.2412 38.4753C58.5948 38.1218 58.5948 37.5485 58.2412 37.1948C57.8875 36.8414 57.3144 36.8414 56.9607 37.1949Z" fill="#EAAC9D"/>
<path d="M61.5685 40.5222C61.2148 40.1687 60.6416 40.1686 60.2879 40.5222L52.8286 47.9815C52.0434 48.7685 51.931 49.9729 52.4917 50.8794L61.5685 41.8026C61.922 41.4491 61.922 40.8758 61.5685 40.5222Z" fill="#EAAC9D"/>
<path d="M64.8955 43.8494C64.5419 43.4958 63.9687 43.4958 63.6149 43.8494L58.3784 49.086C57.5931 49.8731 57.4808 51.0775 58.0415 51.984L64.8955 45.1299C65.2491 44.7762 65.2491 44.2029 64.8955 43.8494Z" fill="#DF9380"/>
<path d="M33.4391 60.8177C33.0854 61.1712 33.0854 61.7445 33.4391 62.0982C33.6159 62.275 33.8476 62.3634 34.0793 62.3634C34.311 62.3634 34.5428 62.2749 34.7195 62.0982L44.1074 52.7103C43.3138 52.0477 42.1238 52.1329 41.3858 52.8709L33.4391 60.8177Z" fill="#EAAC9D"/>
<path d="M36.8929 65.1772C37.1246 65.1772 37.3563 65.0887 37.5331 64.912L45.2411 57.204C44.4593 56.5502 43.2938 56.5905 42.5594 57.3248L36.2526 63.6315C35.8989 63.985 35.8989 64.5583 36.2526 64.912C36.4294 65.0888 36.6611 65.1772 36.8929 65.1772Z" fill="#EAAC9D"/>
<path d="M43.4938 62.0184L39.0668 66.4454C38.7131 66.799 38.7131 67.3722 39.0668 67.7259C39.2436 67.9027 39.4753 67.9911 39.707 67.9911C39.9386 67.9911 40.1704 67.9026 40.3472 67.7259L46.1755 61.8976C45.3938 61.2438 44.2282 61.284 43.4938 62.0184Z" fill="#DF9380"/>
</g>
<defs>
<clipPath id="clip0">
<rect width="60" height="60" fill="white" transform="translate(20 20)"/>
</clipPath>
</defs>
</svg>
