<svg width="14" height="15" viewBox="0 0 20 20" fill="none" xmlns="http://www.w3.org/2000/svg">
    <g clip-path="url(#clip0)">
        <path d="M13.6079 13.6596L6.49141 6.55123C5.04159 5.10141 2.691 5.10141 1.24117 6.55123C-0.208647 8.00105 -0.208647 10.3516 1.24117 11.8014L8.34962 18.9099C9.79944 20.3619 12.1518 20.3637 13.6039 18.9139C15.0559 17.4641 15.0577 15.1117 13.6079 13.6596ZM9.7673 10.9525L5.64641 15.0734L5.36207 15.3617L4.7974 14.789L5.08174 14.5047L9.20263 10.3878L9.48697 10.1035L10.0516 10.6682L9.7673 10.9525Z"
              fill="#CCCCCC"/>
        <path d="M19.6587 4.1323C18.8657 1.16192 15.815 -0.603224 12.8447 0.189718C9.87436 0.98266 8.10921 4.03338 8.9021 7.00371C9.69499 9.97404 12.7458 11.7392 15.7161 10.9463C15.7234 10.9443 15.7307 10.9424 15.738 10.9404C18.6936 10.1339 20.4446 7.09342 19.6587 4.1323ZM18.9699 4.73301L9.81098 7.20395L9.41051 7.31208L9.20226 6.54316L9.60273 6.43503L18.7656 3.9601L19.1661 3.85197L19.3744 4.62488L18.9699 4.73301Z"
              fill="#CCCCCC"/>
    </g>
    <defs>
        <clipPath id="clip0">
            <rect width="20" height="20" fill="white"/>
        </clipPath>
    </defs>
</svg>