<svg xmlns="http://www.w3.org/2000/svg" width="31" height="31" fill="none" viewBox="0 0 31 31"><path fill="#777" d="M16.0188 7.16428V6.61908C16.0188 6.33261 15.7865 6.10034 15.5 6.10034C15.2135 6.10034 14.9813 6.33261 14.9813 6.61908V7.16428C9.17948 7.44271 4.61578 12.2229 4.60645 18.0314C4.60645 18.3179 4.83871 18.5501 5.12519 18.5501C5.41166 18.5501 5.64393 18.3179 5.64393 18.0314C5.64393 16.8854 6.57293 15.9564 7.7189 15.9564C8.86486 15.9564 9.79386 16.8854 9.79386 18.0314C9.79386 18.3179 10.0261 18.5501 10.3126 18.5501C10.5991 18.5501 10.8313 18.3179 10.8313 18.0314C10.8313 16.8854 11.7603 15.9564 12.9063 15.9564C14.0523 15.9564 14.9813 16.8854 14.9813 18.0314V28.4062C14.9813 29.8387 16.1425 30.9999 17.575 30.9999C19.0074 30.9999 20.1687 29.8387 20.1687 28.4062V26.3313C20.1687 26.0448 19.9364 25.8125 19.65 25.8125C19.3635 25.8125 19.1312 26.0448 19.1312 26.3313V28.4062C19.1312 29.2657 18.4345 29.9624 17.575 29.9624C16.7155 29.9624 16.0188 29.2657 16.0188 28.4062V18.0314C16.0188 16.8854 16.9478 15.9564 18.0937 15.9564C19.2397 15.9564 20.1687 16.8854 20.1687 18.0314C20.1687 18.3179 20.401 18.5501 20.6874 18.5501C20.9739 18.5501 21.2062 18.3179 21.2062 18.0314C21.2062 16.8854 22.1352 15.9564 23.2811 15.9564C24.4271 15.9564 25.3561 16.8854 25.3561 18.0314C25.3561 18.3179 25.5884 18.5501 25.8749 18.5501C26.1613 18.5501 26.3936 18.3179 26.3936 18.0314C26.3843 12.2229 21.8206 7.44271 16.0188 7.16428ZM23.2811 14.9189C22.2376 14.9193 21.2637 15.4427 20.6874 16.3128C19.7372 14.8804 17.8057 14.4894 16.3733 15.4396C16.0268 15.6694 15.7298 15.9663 15.5 16.3128C14.5498 14.8804 12.6183 14.4894 11.1858 15.4396C10.8394 15.6694 10.5424 15.9663 10.3126 16.3128C9.36545 14.8808 7.4367 14.4877 6.00465 15.4348C5.99907 15.4385 5.99343 15.4423 5.98785 15.446C7.41329 10.1926 12.8275 7.08932 18.081 8.51476C21.4579 9.43105 24.0959 12.069 25.0122 15.446C24.5006 15.1016 23.8978 14.9181 23.2811 14.9189Z"/><path fill="#777" d="M15.4996 4.54418C16.3591 4.54418 17.0558 3.84744 17.0558 2.98795C17.0558 2.325 16.2663 1.11011 15.9265 0.61834L15.4996 0L15.0727 0.61834C14.7329 1.11011 13.9434 2.325 13.9434 2.98795C13.9434 3.84744 14.6401 4.54418 15.4996 4.54418ZM15.4996 1.87473C15.7306 2.21581 15.9058 2.59163 16.0183 2.98795C16.0183 3.27443 15.7861 3.50669 15.4996 3.50669C15.2131 3.50669 14.9808 3.27443 14.9808 2.98795C15.0933 2.59163 15.2685 2.21581 15.4996 1.87473Z"/><path fill="#777" d="M21.7252 6.61913C22.5847 6.61913 23.2814 5.92239 23.2814 5.0629C23.2814 4.39995 22.4919 3.18506 22.1521 2.69329L21.7252 2.07495L21.2982 2.69329C20.9585 3.18506 20.1689 4.39995 20.1689 5.0629C20.1689 5.92239 20.8657 6.61913 21.7252 6.61913ZM21.7252 3.94968C21.9562 4.29076 22.1313 4.66658 22.2439 5.0629C22.2439 5.34938 22.0116 5.58165 21.7252 5.58165C21.4387 5.58165 21.2064 5.34938 21.2064 5.0629C21.3189 4.66658 21.4941 4.29076 21.7252 3.94968Z"/><path fill="#777" d="M9.27497 6.61913C10.1345 6.61913 10.8312 5.92239 10.8312 5.0629C10.8312 4.39995 10.0417 3.18506 9.7019 2.69329L9.27497 2.07495L8.84805 2.69329C8.50827 3.18506 7.71875 4.39995 7.71875 5.0629C7.71875 5.92239 8.41548 6.61913 9.27497 6.61913ZM9.27497 3.94968C9.5062 4.29069 9.68128 4.66652 9.79371 5.0629C9.79371 5.34938 9.56145 5.58165 9.27497 5.58165C8.9885 5.58165 8.75623 5.34938 8.75623 5.0629C8.86854 4.66652 9.04368 4.29069 9.27497 3.94968Z"/></svg>