<svg width="17" height="17" viewBox="0 -2 12 15" fill="none" xmlns="http://www.w3.org/2000/svg">
<path d="M11.25 10V10.875H7.75C7.75 11.1165 7.70443 11.3444 7.61328 11.5586C7.52214 11.7682 7.39681 11.9528 7.2373 12.1123C7.0778 12.2718 6.89095 12.3971 6.67676 12.4883C6.46712 12.5794 6.24154 12.625 6 12.625C5.75846 12.625 5.5306 12.5794 5.31641 12.4883C5.10677 12.3971 4.9222 12.2718 4.7627 12.1123C4.60319 11.9528 4.47786 11.7682 4.38672 11.5586C4.29557 11.3444 4.25 11.1165 4.25 10.875H0.75V10H1.625V4.75C1.625 4.34896 1.67741 3.96159 1.78223 3.58789C1.88704 3.21419 2.03288 2.86556 2.21973 2.54199C2.41113 2.21842 2.639 1.92448 2.90332 1.66016C3.1722 1.39128 3.46842 1.16341 3.79199 0.976562C4.11556 0.785156 4.46419 0.637044 4.83789 0.532227C5.21159 0.427409 5.59896 0.375 6 0.375C6.40104 0.375 6.78841 0.427409 7.16211 0.532227C7.53581 0.637044 7.88444 0.785156 8.20801 0.976562C8.53158 1.16341 8.82552 1.39128 9.08984 1.66016C9.35872 1.92448 9.58659 2.21842 9.77344 2.54199C9.96484 2.86556 10.113 3.21419 10.2178 3.58789C10.3226 3.96159 10.375 4.34896 10.375 4.75V10H11.25ZM9.5 10V4.75C9.5 4.26693 9.40658 3.81348 9.21973 3.38965C9.03743 2.96582 8.78678 2.59668 8.46777 2.28223C8.15332 1.96322 7.78418 1.71257 7.36035 1.53027C6.93652 1.34342 6.48307 1.25 6 1.25C5.51693 1.25 5.06348 1.34342 4.63965 1.53027C4.21582 1.71257 3.8444 1.96322 3.52539 2.28223C3.21094 2.59668 2.96029 2.96582 2.77344 3.38965C2.59115 3.81348 2.5 4.26693 2.5 4.75V10H9.5ZM6 11.75C6.12305 11.75 6.23698 11.7272 6.3418 11.6816C6.44661 11.6361 6.53776 11.5745 6.61523 11.4971C6.69727 11.415 6.76107 11.3216 6.80664 11.2168C6.85221 11.112 6.875 10.998 6.875 10.875H5.125C5.125 10.998 5.14779 11.112 5.19336 11.2168C5.23893 11.3216 5.30046 11.415 5.37793 11.4971C5.45996 11.5745 5.55339 11.6361 5.6582 11.6816C5.76302 11.7272 5.87695 11.75 6 11.75Z" fill="#333333"/>
</svg>
