<svg width="18" height="19" viewBox="0 0 18 17" fill="none" xmlns="http://www.w3.org/2000/svg">
<path d="M15.6709 8.20117V8.35059C15.6709 8.40039 15.6738 8.4502 15.6797 8.5V8.64941C15.6797 8.69922 15.6768 8.74902 15.6709 8.79883L17.9473 10.1353L16.5498 13.3145L13.9395 12.75C13.7988 12.8939 13.6523 13.0322 13.5 13.165L14.0977 15.6304L10.7314 16.9502L9.31641 14.8003H9.1582C9.10547 14.8003 9.05273 14.8031 9 14.8086H8.8418C8.78906 14.8086 8.73633 14.8058 8.68359 14.8003L7.26855 16.9502L3.90234 15.6304L4.5 13.165C4.34766 13.0322 4.20117 12.8939 4.06055 12.75L1.4502 13.3145L0.0527344 10.1353L2.3291 8.79883V8.64941C2.3291 8.59961 2.32617 8.5498 2.32031 8.5V8.35059C2.32031 8.30078 2.32324 8.25098 2.3291 8.20117L0.0527344 6.86475L1.4502 3.68555L4.06055 4.25C4.20117 4.10612 4.34766 3.96777 4.5 3.83496L3.90234 1.36963L7.26855 0.0498047L8.68359 2.19971H8.8418C8.89453 2.19971 8.94727 2.19694 9 2.19141H9.1582C9.21094 2.19141 9.26367 2.19417 9.31641 2.19971L10.7314 0.0498047L14.0977 1.36963L13.5 3.83496C13.6523 3.96777 13.7988 4.10612 13.9395 4.25L16.5498 3.68555L17.9473 6.86475L15.6709 8.20117ZM14.6426 9.28027C14.6543 9.14746 14.666 9.01742 14.6777 8.89014C14.6895 8.76286 14.6953 8.63005 14.6953 8.4917C14.6953 8.36442 14.6895 8.23438 14.6777 8.10156C14.666 7.96875 14.6543 7.8387 14.6426 7.71143L16.7168 6.49121L15.9609 4.76465L13.5791 5.2876C13.3975 5.07731 13.2129 4.88363 13.0254 4.70654C12.8379 4.52946 12.6299 4.35238 12.4014 4.17529L12.9551 1.92578L11.127 1.21191L9.82617 3.1709C9.69141 3.15983 9.55371 3.14876 9.41309 3.1377C9.27246 3.12663 9.13477 3.12109 9 3.12109C8.85938 3.12109 8.72168 3.12663 8.58691 3.1377C8.45215 3.14876 8.31152 3.15983 8.16504 3.1709L6.87305 1.21191L5.04492 1.92578L5.59863 4.17529C5.37598 4.34684 5.1709 4.52116 4.9834 4.69824C4.7959 4.87533 4.6084 5.07178 4.4209 5.2876L2.03906 4.76465L1.2832 6.49121L3.35742 7.71973C3.3457 7.85254 3.33398 7.98258 3.32227 8.10986C3.31055 8.23714 3.30469 8.36995 3.30469 8.5083C3.30469 8.63558 3.31055 8.76562 3.32227 8.89844C3.33398 9.03125 3.3457 9.1613 3.35742 9.28857L1.2832 10.5088L2.03906 12.2354L4.4209 11.7124C4.60254 11.9227 4.78711 12.1164 4.97461 12.2935C5.16211 12.4705 5.37012 12.6476 5.59863 12.8247L5.04492 15.0742L6.87305 15.7881L8.17383 13.8291C8.30859 13.8402 8.44629 13.8512 8.58691 13.8623C8.72754 13.8734 8.86523 13.8789 9 13.8789C9.14062 13.8789 9.27832 13.8734 9.41309 13.8623C9.54785 13.8512 9.68848 13.8402 9.83496 13.8291L11.127 15.7881L12.9551 15.0742L12.4014 12.8247C12.624 12.6532 12.8291 12.4788 13.0166 12.3018C13.2041 12.1247 13.3916 11.9282 13.5791 11.7124L15.9609 12.2354L16.7168 10.5088L14.6426 9.28027ZM9 5.37891C9.45703 5.37891 9.88477 5.45915 10.2832 5.61963C10.6816 5.78011 11.0332 6.00423 11.3379 6.29199C11.6426 6.57975 11.877 6.90902 12.041 7.27979C12.2051 7.65055 12.293 8.05729 12.3047 8.5C12.3047 8.93164 12.2197 9.33561 12.0498 9.71191C11.8799 10.0882 11.6426 10.4202 11.3379 10.708C11.0332 10.9958 10.6846 11.2171 10.292 11.3721C9.89941 11.527 9.46875 11.61 9 11.6211C8.54297 11.6211 8.11523 11.5409 7.7168 11.3804C7.31836 11.2199 6.9668 10.9958 6.66211 10.708C6.35742 10.4202 6.12305 10.091 5.95898 9.72021C5.79492 9.34945 5.70703 8.94271 5.69531 8.5C5.69531 8.06836 5.78027 7.66439 5.9502 7.28809C6.12012 6.91178 6.35742 6.57975 6.66211 6.29199C6.9668 6.00423 7.31543 5.78288 7.70801 5.62793C8.10059 5.47298 8.53125 5.38997 9 5.37891ZM9 10.6914C9.32227 10.6914 9.62402 10.6361 9.90527 10.5254C10.1865 10.4147 10.4326 10.257 10.6436 10.0522C10.8545 9.84749 11.0186 9.61507 11.1357 9.35498C11.2529 9.09489 11.3145 8.8099 11.3203 8.5C11.3203 8.19564 11.2617 7.91064 11.1445 7.64502C11.0273 7.37939 10.8604 7.14697 10.6436 6.94775C10.4268 6.74854 10.1807 6.59359 9.90527 6.48291C9.62988 6.37223 9.32812 6.31413 9 6.30859C8.67773 6.30859 8.37598 6.36393 8.09473 6.47461C7.81348 6.58529 7.56738 6.743 7.35645 6.94775C7.14551 7.15251 6.98145 7.38493 6.86426 7.64502C6.74707 7.90511 6.68555 8.1901 6.67969 8.5C6.67969 8.80436 6.73828 9.08936 6.85547 9.35498C6.97266 9.62061 7.13965 9.85303 7.35645 10.0522C7.57324 10.2515 7.81934 10.4064 8.09473 10.5171C8.37012 10.6278 8.67188 10.6859 9 10.6914Z" fill="#333333"/>
</svg>
