<svg width="14" height="15" viewBox="0 0 20 20" fill="none" xmlns="http://www.w3.org/2000/svg">
<g clip-path="url(#clip0)">
<path d="M4.5752 19.9006H10.0003H15.4254V19.1772H4.5752V19.9006Z" fill="#CCCCCC" />
<path d="M15.8948 1.63315C15.7141 1.49398 15.5085 1.39042 15.2891 1.328L13.1558 0.718373C13.0967 0.701442 13.0428 0.669717 12.9994 0.626203L12.4727 0.0996094C11.7109 0.505156 10.863 0.722091 10 0.732178C9.13707 0.722091 8.2891 0.505156 7.5273 0.0996094L7.00067 0.626203C6.95719 0.669756 6.90335 0.701482 6.84422 0.718412L4.71094 1.328C4.49151 1.39042 4.28597 1.49398 4.10519 1.63315L0 4.79109L2.48684 8.5219L3.17815 7.96877L1.38065 5.27286C1.27222 5.10676 1.31783 4.88429 1.4829 4.77424C1.64798 4.66419 1.87085 4.70766 1.98248 4.87163L3.74506 7.51516L3.98723 7.3214C4.09582 7.23453 4.24459 7.21764 4.36995 7.27789C4.49531 7.33814 4.57498 7.46492 4.57498 7.60397V18.4541H15.4251V7.60393C15.4251 7.46484 15.5048 7.3381 15.6302 7.27785C15.7555 7.2176 15.9043 7.23454 16.0129 7.32136L16.2551 7.51512L18.0176 4.87159C18.1288 4.70647 18.3525 4.66229 18.5182 4.77273C18.6839 4.88318 18.7291 5.10668 18.6195 5.27282L16.822 7.96873L17.5133 8.52187L20.0001 4.79105L15.8948 1.63315Z" fill="#CCCCCC" />
</g>
<defs>
<clipPath id="clip0">
    <rect width="20" height="20" fill="white" />
</clipPath>
</defs>
        </svg>