<svg width="18" height="15" viewBox="0 0 18 15" fill="none" xmlns="http://www.w3.org/2000/svg">
<path d="M16.2598 4.54688C16.5234 4.69336 16.7637 4.875 16.9805 5.0918C17.1973 5.30273 17.3789 5.53711 17.5254 5.79492C17.6777 6.04688 17.7949 6.31934 17.877 6.6123C17.959 6.89941 18 7.19531 18 7.5H16.875C16.875 7.19531 16.8135 6.90527 16.6904 6.62988C16.5732 6.35449 16.4121 6.11719 16.207 5.91797C16.0078 5.71289 15.7705 5.55176 15.4951 5.43457C15.2197 5.31152 14.9297 5.25 14.625 5.25C14.3145 5.25 14.0215 5.31152 13.7461 5.43457C13.4766 5.55176 13.2393 5.71289 13.0342 5.91797C12.835 6.11719 12.6738 6.35449 12.5508 6.62988C12.4336 6.90527 12.375 7.19531 12.375 7.5C12.375 8.0332 12.252 8.54004 12.0059 9.02051C11.7656 9.50098 11.4316 9.89941 11.0039 10.2158C11.3848 10.4092 11.7275 10.6494 12.0322 10.9365C12.3428 11.2178 12.6064 11.5342 12.8232 11.8857C13.04 12.2314 13.207 12.6064 13.3242 13.0107C13.4414 13.4092 13.5 13.8223 13.5 14.25H12.375C12.375 13.7871 12.2842 13.3506 12.1025 12.9404C11.9268 12.5303 11.6865 12.1729 11.3818 11.8682C11.0771 11.5635 10.7197 11.3232 10.3096 11.1475C9.89941 10.9658 9.46289 10.875 9 10.875C8.53711 10.875 8.10059 10.9658 7.69043 11.1475C7.28027 11.3232 6.92285 11.5635 6.61816 11.8682C6.31348 12.1729 6.07031 12.5303 5.88867 12.9404C5.71289 13.3506 5.625 13.7871 5.625 14.25H4.5C4.5 13.8223 4.55859 13.4092 4.67578 13.0107C4.79297 12.6064 4.95996 12.2314 5.17676 11.8857C5.39355 11.5342 5.6543 11.2178 5.95898 10.9365C6.26953 10.6494 6.61523 10.4092 6.99609 10.2158C6.56836 9.89941 6.23145 9.50098 5.98535 9.02051C5.74512 8.54004 5.625 8.0332 5.625 7.5C5.625 7.19531 5.56348 6.90527 5.44043 6.62988C5.32324 6.35449 5.16211 6.11719 4.95703 5.91797C4.75781 5.71289 4.52051 5.55176 4.24512 5.43457C3.96973 5.31152 3.67969 5.25 3.375 5.25C3.06445 5.25 2.77148 5.31152 2.49609 5.43457C2.22656 5.55176 1.98926 5.71289 1.78418 5.91797C1.58496 6.11719 1.42383 6.35449 1.30078 6.62988C1.18359 6.90527 1.125 7.19531 1.125 7.5H0C0 7.19531 0.0410156 6.89941 0.123047 6.6123C0.205078 6.31934 0.319336 6.04688 0.46582 5.79492C0.618164 5.53711 0.802734 5.30273 1.01953 5.0918C1.23633 4.875 1.47656 4.69336 1.74023 4.54688C1.54688 4.3418 1.39453 4.10449 1.2832 3.83496C1.17773 3.56543 1.125 3.28711 1.125 3C1.125 2.69531 1.18359 2.40527 1.30078 2.12988C1.42383 1.85449 1.58496 1.61719 1.78418 1.41797C1.98926 1.21289 2.22656 1.05176 2.49609 0.93457C2.77148 0.811523 3.06445 0.75 3.375 0.75C3.67969 0.75 3.96973 0.811523 4.24512 0.93457C4.52051 1.05176 4.75781 1.21289 4.95703 1.41797C5.16211 1.61719 5.32324 1.85449 5.44043 2.12988C5.56348 2.40527 5.625 2.69531 5.625 3C5.625 3.28711 5.56934 3.56543 5.45801 3.83496C5.35254 4.10449 5.20312 4.3418 5.00977 4.54688C5.49023 4.81055 5.88281 5.17383 6.1875 5.63672C6.50391 5.16797 6.9082 4.79883 7.40039 4.5293C7.89844 4.25977 8.43164 4.125 9 4.125C9.56836 4.125 10.0986 4.25977 10.5908 4.5293C11.0889 4.79883 11.4961 5.16797 11.8125 5.63672C12.1172 5.17383 12.5098 4.81055 12.9902 4.54688C12.7969 4.3418 12.6445 4.10449 12.5332 3.83496C12.4277 3.56543 12.375 3.28711 12.375 3C12.375 2.69531 12.4336 2.40527 12.5508 2.12988C12.6738 1.85449 12.835 1.61719 13.0342 1.41797C13.2393 1.21289 13.4766 1.05176 13.7461 0.93457C14.0215 0.811523 14.3145 0.75 14.625 0.75C14.9297 0.75 15.2197 0.811523 15.4951 0.93457C15.7705 1.05176 16.0078 1.21289 16.207 1.41797C16.4121 1.61719 16.5732 1.85449 16.6904 2.12988C16.8135 2.40527 16.875 2.69531 16.875 3C16.875 3.28711 16.8193 3.56543 16.708 3.83496C16.6025 4.10449 16.4531 4.3418 16.2598 4.54688ZM2.25 3C2.25 3.1582 2.2793 3.30469 2.33789 3.43945C2.39648 3.57422 2.47559 3.69434 2.5752 3.7998C2.68066 3.89941 2.80078 3.97852 2.93555 4.03711C3.07031 4.0957 3.2168 4.125 3.375 4.125C3.5332 4.125 3.67969 4.0957 3.81445 4.03711C3.94922 3.97852 4.06641 3.89941 4.16602 3.7998C4.27148 3.69434 4.35352 3.57422 4.41211 3.43945C4.4707 3.30469 4.5 3.1582 4.5 3C4.5 2.8418 4.4707 2.69531 4.41211 2.56055C4.35352 2.42578 4.27148 2.30859 4.16602 2.20898C4.06641 2.10352 3.94922 2.02148 3.81445 1.96289C3.67969 1.9043 3.5332 1.875 3.375 1.875C3.2168 1.875 3.07031 1.9043 2.93555 1.96289C2.80078 2.02148 2.68066 2.10352 2.5752 2.20898C2.47559 2.30859 2.39648 2.42578 2.33789 2.56055C2.2793 2.69531 2.25 2.8418 2.25 3ZM9 9.75C9.30469 9.75 9.59473 9.69141 9.87012 9.57422C10.1455 9.45117 10.3828 9.29004 10.582 9.09082C10.7871 8.88574 10.9482 8.64844 11.0654 8.37891C11.1885 8.10352 11.25 7.81055 11.25 7.5C11.25 7.19531 11.1885 6.90527 11.0654 6.62988C10.9482 6.35449 10.7871 6.11719 10.582 5.91797C10.3828 5.71289 10.1455 5.55176 9.87012 5.43457C9.59473 5.31152 9.30469 5.25 9 5.25C8.68945 5.25 8.39648 5.31152 8.12109 5.43457C7.85156 5.55176 7.61426 5.71289 7.40918 5.91797C7.20996 6.11719 7.04883 6.35449 6.92578 6.62988C6.80859 6.90527 6.75 7.19531 6.75 7.5C6.75 7.81055 6.80859 8.10352 6.92578 8.37891C7.04883 8.64844 7.20996 8.88574 7.40918 9.09082C7.61426 9.29004 7.85156 9.45117 8.12109 9.57422C8.39648 9.69141 8.68945 9.75 9 9.75ZM13.5 3C13.5 3.1582 13.5293 3.30469 13.5879 3.43945C13.6465 3.57422 13.7256 3.69434 13.8252 3.7998C13.9307 3.89941 14.0508 3.97852 14.1855 4.03711C14.3203 4.0957 14.4668 4.125 14.625 4.125C14.7832 4.125 14.9297 4.0957 15.0645 4.03711C15.1992 3.97852 15.3164 3.89941 15.416 3.7998C15.5215 3.69434 15.6035 3.57422 15.6621 3.43945C15.7207 3.30469 15.75 3.1582 15.75 3C15.75 2.8418 15.7207 2.69531 15.6621 2.56055C15.6035 2.42578 15.5215 2.30859 15.416 2.20898C15.3164 2.10352 15.1992 2.02148 15.0645 1.96289C14.9297 1.9043 14.7832 1.875 14.625 1.875C14.4668 1.875 14.3203 1.9043 14.1855 1.96289C14.0508 2.02148 13.9307 2.10352 13.8252 2.20898C13.7256 2.30859 13.6465 2.42578 13.5879 2.56055C13.5293 2.69531 13.5 2.8418 13.5 3Z" fill="#777777"/>
</svg>
