<svg id="SvgjsSvg1025" width="288" height="288" xmlns="http://www.w3.org/2000/svg" version="1.1" xmlns:xlink="http://www.w3.org/1999/xlink" xmlns:svgjs="http://svgjs.com/svgjs"><defs id="SvgjsDefs1026"></defs><g id="SvgjsG1027" transform="matrix(0.9167,0,0,0.9167,11.995200000000011,11.995200000000011)"><svg xmlns="http://www.w3.org/2000/svg" width="288" height="288" viewBox="0 0 32 32"><path d="M 16 0 C 7.1691886 0 5.7824116e-019 7.1692003 0 16 C 0 24.8308 7.1691849 32 16 32 C 24.830816 32 32 24.8308 32 16 C 32 7.1692003 24.830812 0 16 0 z M 16 0.96875 C 24.306753 0.96875 31.03125 7.6932003 31.03125 16 C 31.03125 24.3067 24.306749 31.03125 16 31.03125 C 7.6932522 31.03125 0.96875 24.3067 0.96875 16 C 0.96875 7.6932003 7.6932485 0.96875 16 0.96875 z M 22.46875 9.125 A 0.47043487 0.47043487 0 0 0 22.15625 9.59375 L 22.15625 11 L 20.75 11 A 0.47043487 0.47043487 0 0 0 20.6875 11 A 0.47043487 0.47043487 0 0 0 20.75 11.9375 L 22.15625 11.9375 L 22.15625 13.34375 A 0.47043487 0.47043487 0 1 0 23.09375 13.34375 L 23.09375 11.9375 L 24.5 11.9375 A 0.47043487 0.47043487 0 1 0 24.5 11 L 23.09375 11 L 23.09375 9.59375 A 0.47043487 0.47043487 0 0 0 22.625 9.125 A 0.47043487 0.47043487 0 0 0 22.5 9.125 A 0.47043487 0.47043487 0 0 0 22.46875 9.125 z M 15.5625 11 C 13.749568 11 12.281267 12.4996 12.28125 14.3125 C 12.281267 16.1255 13.749568 17.59375 15.5625 17.59375 C 17.375432 17.59375 18.874983 16.1255 18.875 14.3125 C 18.874982 12.4996 17.375432 11 15.5625 11 z M 15.5625 11.9375 C 16.867003 11.9375 17.937487 13.008 17.9375 14.3125 C 17.937487 15.6171 16.867003 16.65625 15.5625 16.65625 C 14.257997 16.65625 13.218762 15.6171 13.21875 14.3125 C 13.218762 13.008 14.257997 11.9375 15.5625 11.9375 z M 15.5625 18.53125 C 11.961148 18.53125 9 21.0226 9 24.1875 L 9.9375 24.1875 C 9.9375 21.6194 12.388386 19.46875 15.5625 19.46875 C 18.736614 19.46875 21.21875 21.6194 21.21875 24.1875 L 22.15625 24.1875 C 22.15625 21.0226 19.163852 18.53125 15.5625 18.53125 z " color="#000" font-family="Sans" font-weight="400" overflow="visible" style="text-indent:0;text-align:start;line-height:normal;text-transform:none;block-progression:tb;marker:none;-inkscape-font-specification:Sans" fill="#ffffff" class="color000 svgShape"></path></svg></g></svg>