<svg xmlns="http://www.w3.org/2000/svg" width="200" height="200" fill="none" viewBox="0 0 200 200"><rect width="200" height="200" fill="#EEE"/><path fill="#AAA" d="M121.516 125.586C127.891 127.789 133.633 130.859 138.742 134.797C143.852 138.734 148.211 143.328 151.82 148.578C155.43 153.828 158.195 159.523 160.117 165.664C162.039 171.805 163 178.25 163 185H154C154 177.312 152.641 170.188 149.922 163.625C147.203 157.062 143.406 151.344 138.531 146.469C133.656 141.594 127.961 137.82 121.445 135.148C114.93 132.477 107.781 131.094 100 131C94.9844 131 90.1562 131.633 85.5156 132.898C80.875 134.164 76.5625 135.945 72.5781 138.242C68.5937 140.539 64.9609 143.328 61.6797 146.609C58.3984 149.891 55.6094 153.523 53.3125 157.508C51.0156 161.492 49.2109 165.828 47.8984 170.516C46.5859 175.203 45.9531 180.031 46 185H37C37 178.25 37.9844 171.805 39.9531 165.664C41.9219 159.523 44.7109 153.852 48.3203 148.648C51.9297 143.445 56.2891 138.898 61.3984 135.008C66.5078 131.117 72.25 128 78.625 125.656C74.9688 123.688 71.6875 121.297 68.7812 118.484C65.875 115.672 63.4141 112.555 61.3984 109.133C59.3828 105.711 57.8125 102.031 56.6875 98.0938C55.5625 94.1562 55 90.125 55 86C55 79.7656 56.1719 73.9297 58.5156 68.4922C60.8594 63.0547 64.0703 58.2734 68.1484 54.1484C72.2266 50.0234 76.9844 46.8125 82.4219 44.5156C87.8594 42.2187 93.7187 41.0469 100 41C106.234 41 112.07 42.1719 117.508 44.5156C122.945 46.8594 127.727 50.0703 131.852 54.1484C135.977 58.2266 139.187 62.9844 141.484 68.4219C143.781 73.8594 144.953 79.7187 145 86C145 90.125 144.461 94.1328 143.383 98.0234C142.305 101.914 140.734 105.57 138.672 108.992C136.609 112.414 134.148 115.531 131.289 118.344C128.43 121.156 125.172 123.57 121.516 125.586ZM64 86C64 90.9687 64.9375 95.6328 66.8125 99.9922C68.6875 104.352 71.2656 108.148 74.5469 111.383C77.8281 114.617 81.6484 117.195 86.0078 119.117C90.3672 121.039 95.0313 122 100 122C104.969 122 109.633 121.062 113.992 119.188C118.352 117.313 122.148 114.734 125.383 111.453C128.617 108.172 131.195 104.352 133.117 99.9922C135.039 95.6328 136 90.9687 136 86C136 81.0313 135.062 76.3672 133.188 72.0078C131.313 67.6484 128.734 63.8516 125.453 60.6172C122.172 57.3828 118.352 54.8047 113.992 52.8828C109.633 50.9609 104.969 50 100 50C95.0313 50 90.3672 50.9375 86.0078 52.8125C81.6484 54.6875 77.8516 57.2656 74.6172 60.5469C71.3828 63.8281 68.8047 67.6484 66.8828 72.0078C64.9609 76.3672 64 81.0313 64 86Z"/></svg>