<svg width="58" height="58" viewBox="0 0 58 58" fill="none" xmlns="http://www.w3.org/2000/svg">
<path d="M27.0431 2.24434C28.2586 1.56248 29.7414 1.56248 30.9569 2.24434L34.1552 4.0384C35.0298 4.52904 36.0135 4.79261 37.0163 4.80503L40.6831 4.85045C42.0767 4.86771 43.3608 5.60912 44.0726 6.80739L45.9453 9.96021C46.4575 10.8224 47.1776 11.5425 48.0398 12.0547L51.1926 13.9274C52.3909 14.6392 53.1323 15.9233 53.1496 17.3169L53.195 20.9837C53.2074 21.9865 53.471 22.9702 53.9616 23.8448L55.7557 27.0431C56.4375 28.2586 56.4375 29.7414 55.7557 30.9569L53.9616 34.1552C53.471 35.0298 53.2074 36.0135 53.195 37.0163L53.1496 40.6831C53.1323 42.0767 52.3909 43.3608 51.1926 44.0726L48.0398 45.9453C47.1776 46.4575 46.4575 47.1776 45.9453 48.0398L44.0726 51.1926C43.3608 52.3909 42.0767 53.1323 40.6831 53.1496L37.0163 53.195C36.0135 53.2074 35.0298 53.471 34.1552 53.9616L30.9569 55.7557C29.7414 56.4375 28.2586 56.4375 27.0431 55.7557L23.8448 53.9616C22.9702 53.471 21.9865 53.2074 20.9837 53.195L17.3169 53.1496C15.9233 53.1323 14.6392 52.3909 13.9274 51.1926L12.0547 48.0398C11.5425 47.1776 10.8224 46.4575 9.96021 45.9453L6.80739 44.0726C5.60912 43.3608 4.86771 42.0767 4.85045 40.6831L4.80503 37.0163C4.79261 36.0135 4.52904 35.0298 4.0384 34.1552L2.24434 30.9569C1.56248 29.7414 1.56248 28.2586 2.24434 27.0431L4.0384 23.8448C4.52904 22.9702 4.79261 21.9865 4.80503 20.9837L4.85045 17.3169C4.86771 15.9233 5.60912 14.6392 6.80739 13.9274L9.96021 12.0547C10.8224 11.5425 11.5425 10.8224 12.0547 9.96021L13.9274 6.80739C14.6392 5.60912 15.9233 4.86771 17.3169 4.85045L20.9837 4.80503C21.9865 4.79261 22.9702 4.52904 23.8448 4.0384L27.0431 2.24434Z" fill="#57A4FF" stroke="#1E81CE" stroke-width="2"/>
<path d="M40.1973 16.9619C40.7715 16.9619 41.3047 17.0645 41.7969 17.2695C42.2891 17.4746 42.7266 17.7686 43.1094 18.1514C43.4922 18.5342 43.7793 18.9648 43.9707 19.4434C44.1621 19.9219 44.2715 20.4619 44.2988 21.0635C44.2988 21.6104 44.1963 22.1367 43.9912 22.6426C43.7861 23.1484 43.4922 23.5928 43.1094 23.9756L26.8262 40.2793C26.4434 40.6621 25.999 40.9561 25.4932 41.1611C24.9873 41.3662 24.4609 41.4756 23.9141 41.4893C23.3672 41.4893 22.8408 41.3867 22.335 41.1816C21.8291 40.9766 21.3848 40.6758 21.002 40.2793L13.5781 32.8555C13.1953 32.4727 12.9014 32.0283 12.6963 31.5225C12.4912 31.0166 12.3818 30.4902 12.3682 29.9434C12.3682 29.3691 12.4775 28.8359 12.6963 28.3438C12.915 27.8516 13.209 27.4141 13.5781 27.0312C13.9473 26.6484 14.3779 26.3613 14.8701 26.1699C15.3623 25.9785 15.9023 25.8691 16.4902 25.8418C17.0371 25.8418 17.5635 25.9443 18.0693 26.1494C18.5752 26.3545 19.0195 26.6484 19.4023 27.0312L23.9141 31.543L37.2852 18.1514C37.668 17.7686 38.1123 17.4746 38.6182 17.2695C39.124 17.0645 39.6504 16.9619 40.1973 16.9619Z" fill="white"/>
</svg>
