<svg width="68" height="68" viewBox="0 0 68 68" fill="none" xmlns="http://www.w3.org/2000/svg">
<path fill-rule="evenodd" clip-rule="evenodd" d="M67.7107 0H0V67.7107L67.7107 0Z" fill="#FFD600"/>
<path d="M14.5117 36.1418L8.51471 30.0739L10.6401 27.9733C11.3764 27.2457 12.0749 26.8355 12.7356 26.7427C13.3935 26.6471 13.9916 26.8716 14.5298 27.4161C14.8236 27.7134 15.0067 28.0515 15.079 28.4303C15.1486 28.8064 15.0995 29.1817 14.9315 29.5564C15.3196 29.3267 15.7192 29.242 16.1304 29.3024C16.5444 29.3601 16.9203 29.5598 17.258 29.9015C17.8347 30.485 18.0851 31.1107 18.0094 31.7787C17.9336 32.4467 17.554 33.124 16.8705 33.8105L14.5117 36.1418ZM13.1506 32.2639L14.7693 33.9018L15.8403 32.8432C16.1348 32.5522 16.2954 32.2562 16.322 31.9552C16.3487 31.6488 16.2398 31.3719 15.9954 31.1247C15.4463 30.569 14.88 30.5712 14.2967 31.1313L13.1506 32.2639ZM12.2774 31.3804L13.2026 30.4661C13.8223 29.8316 13.8891 29.2685 13.4031 28.7768C13.1313 28.5017 12.8557 28.3841 12.5765 28.4239C12.2973 28.4582 11.9855 28.6455 11.641 28.986L10.7658 29.851L12.2774 31.3804Z" fill="#333333"/>
<path d="M21.0145 24.5166L18.614 26.8891L20.2203 28.5144L23.0375 25.7301L24.0302 26.7344L19.9627 30.7544L13.9658 24.6865L18.0249 20.6748L19.0257 21.6875L16.2169 24.4636L17.6461 25.9097L20.0466 23.5373L21.0145 24.5166Z" fill="#333333"/>
<path d="M24.4185 16.3578L22.5598 18.1948L27.5559 23.2499L26.3056 24.4856L21.3095 19.4304L19.4758 21.2427L18.475 20.23L23.4176 15.3451L24.4185 16.3578Z" fill="#333333"/>
<path d="M31.8213 16.5629L29.6292 18.7294L30.4481 20.3915L29.1187 21.7054L25.3805 13.4052L26.539 12.2601L34.8073 16.0832L33.4778 17.3971L31.8213 16.5629ZM28.9659 17.383L30.4828 15.8838L27.4755 14.3663L28.9659 17.383Z" fill="#333333"/>
</svg>
