<svg width="645" height="414" viewBox="0 0 645 414" fill="none" xmlns="http://www.w3.org/2000/svg">
<path d="M104.881 411.883C104.881 411.883 -71.0538 280.268 32.8121 147.238C112.95 44.602 245.617 120.365 276.499 109.083C307.382 97.8006 373.891 -31.9379 505.506 8.93569C668.451 59.541 603.014 287.321 546.841 411.56L104.881 411.883Z" fill="#CEFFCD"/>
<path d="M144.601 411.884C144.601 411.884 -2.80898 301.598 84.2163 190.14C151.363 104.134 262.522 167.619 288.399 158.172C314.277 148.724 370.001 40.0127 480.28 74.2509C616.807 116.652 561.978 307.509 514.914 411.602L144.601 411.884Z" fill="#ACE0AB"/>
<path d="M98.8192 409.872C97.207 407.328 92.3498 400.724 85.883 401.597C78.8373 402.548 93.6712 407.213 98.2039 409.89C97.3566 409.934 96.5078 409.835 95.6935 409.595C92.6587 408.509 87.4614 410.591 85.7999 411.323H114.694C114.362 410.206 113.62 409.258 112.617 408.67C112.142 408.378 111.189 408.339 109.959 408.433C111.677 406.4 112.869 399.905 108.087 401.576C104.593 402.796 104.603 406.765 104.946 409.113C104.203 409.231 103.448 409.348 102.706 409.455C101.267 402.095 96.179 380.525 85.8674 379.949C75.4131 379.366 94.733 402.319 101.166 409.661C100.348 409.762 99.5539 409.838 98.8192 409.872Z" fill="#82B378"/>
<path d="M25.823 411.323H644.107C644.224 411.323 644.34 411.347 644.449 411.392C644.557 411.437 644.655 411.503 644.738 411.586C644.821 411.669 644.887 411.768 644.932 411.877C644.977 411.986 645 412.102 645 412.22V413.101C645 413.219 644.977 413.335 644.932 413.444C644.887 413.553 644.821 413.652 644.738 413.735C644.655 413.818 644.557 413.884 644.449 413.929C644.34 413.974 644.224 413.997 644.107 413.997H25.8204C25.5836 413.997 25.3564 413.903 25.1889 413.735C25.0215 413.567 24.9274 413.339 24.9274 413.101V412.22C24.9281 411.982 25.0227 411.754 25.1906 411.586C25.3585 411.418 25.5859 411.323 25.823 411.323Z" fill="#2E3552"/>
<path d="M192.109 76.7373C191.961 75.9241 190.058 67.2089 176.631 68.697C176.631 68.697 183.316 68.525 184.871 71.2616C184.871 71.2616 179.879 68.3295 176.403 70.0132C172.927 71.6968 171.712 78.4157 171.989 80.5267C172.267 82.6378 175.279 89.1273 177.675 89.3879C178.626 89.4425 179.578 89.3051 180.476 88.984C179.966 90.1158 179.522 91.2767 179.147 92.4607C175.403 104.225 182.454 114.16 186.797 112.318C189.583 111.134 191.117 115.966 191.117 115.966L215.941 89.0074C215.941 89.0074 202.509 69.0541 192.109 76.7373Z" fill="#2C3A64"/>
<path d="M224.443 401.388L218.407 403.645C218.407 403.645 192.187 367.14 188.96 335.021C188.383 329.287 188.575 323.73 189.822 318.601C189.822 318.601 189.562 317.131 189.118 314.536C188.91 313.324 188.653 311.864 188.363 310.191C187.511 305.289 186.338 298.58 184.988 290.939C181.911 273.352 177.916 250.886 174.811 234.368L176.436 233.846L194.035 228.147L197.67 216.549L210.774 213.085C210.774 213.085 213.703 218.832 216.32 245.986C216.803 249.549 217.241 253.477 217.571 257.738C218.777 273.596 218.36 289.537 216.325 305.309C215.724 310.03 214.957 314.895 214.022 319.904C213.332 323.577 213.228 328.578 213.518 334.322C214.842 360.583 224.443 401.388 224.443 401.388Z" fill="#2B478B"/>
<path d="M217.574 257.74L189.118 314.53C188.91 313.318 188.653 311.859 188.363 310.186C187.511 305.283 186.338 298.575 184.988 290.933C181.911 273.352 177.916 250.886 174.811 234.368L176.436 233.846L194.035 228.147L197.67 216.549L210.774 213.085C210.774 213.085 213.703 218.832 216.32 245.986C216.803 249.552 217.241 253.479 217.574 257.74Z" fill="#233862"/>
<path d="M205.055 220.372L205.024 220.508C204.933 220.883 204.655 222.032 204.245 223.677C202.353 231.496 197.732 250.466 197.451 250.451C194.915 268.244 191.099 291.296 186.361 309.016C183.853 318.398 181.091 326.266 178.116 331.09C177.096 332.748 175.982 335.521 174.819 339.042C167.973 359.824 159.546 406.861 159.546 406.861L155.704 408.425C155.704 408.425 140.907 366.157 153.728 331.836C155.041 328.306 156.656 324.898 158.555 321.648C158.792 321.285 158.904 320.854 158.874 320.42C158.875 320.415 158.875 320.41 158.874 320.405C158.705 318.977 158.29 315.396 157.82 310.366C156.522 296.485 155.26 249.578 154.577 238.54C154.329 234.803 154.435 231.05 154.897 227.333C155.717 220.891 157.568 216.069 159.375 212.697C161.654 208.441 163.866 206.491 163.866 206.491C163.866 206.491 193.36 217.643 204.396 214.711L205.055 220.372Z" fill="#2B478B"/>
<path d="M205.022 223.174C204.786 223.348 204.532 223.514 204.258 223.674C194.09 229.64 158.414 227.545 154.905 227.323C155.725 220.88 157.576 216.059 159.383 212.686C174.642 214.047 199.933 216.804 205.027 220.505C206.182 221.35 206.299 222.241 205.022 223.174Z" fill="#223E77"/>
<path d="M261.943 211.063L260.154 216.377C260.154 216.377 259.793 216.312 259.173 216.153C257.221 215.66 252.457 214.519 247.125 212.947C239.077 210.654 229.638 207.453 226.2 204.362C220.959 199.686 213.28 186.879 208.97 174.682C208.85 174.391 208.749 174.093 208.667 173.788C206.439 167.327 205.19 161.091 205.845 156.407C206.15 153.889 206.857 151.437 207.937 149.144C209.027 146.836 210.566 144.769 212.462 143.066C212.688 142.81 212.95 142.59 213.241 142.412C215.86 140.23 217.88 138.826 217.88 138.826C219.04 138.565 220.401 140.025 221.379 141.554C221.379 141.554 222.968 144.591 223.646 146.767C223.682 146.819 223.719 146.874 223.711 146.918C223.861 147.364 224.007 147.856 224.188 148.401C224.246 148.518 224.284 148.644 224.3 148.774C224.608 149.901 224.908 151.074 225.201 152.292C228.56 165.388 231.159 184.779 235.066 191.125C236.759 193.854 245.596 200.208 252.667 205.029C257.761 208.456 261.943 211.063 261.943 211.063Z" fill="#ED985F"/>
<path d="M214.635 151.541C211.436 153.626 207.454 155.328 202.485 156.332C183.858 160.1 177.205 144.197 174.845 133.342C176.809 132.322 178.962 131.724 181.169 131.586C182.511 131.466 183.921 131.4 185.086 131.374C187.21 129.834 190.489 123.384 191.46 113.248L192.324 113.509L206.797 117.939C206.797 117.939 205.998 122.576 205.549 126.965C205.198 130.4 205.066 133.689 205.694 134.523C206.826 134.802 207.511 134.984 207.511 134.984C207.511 134.988 207.511 134.993 207.511 134.997C210.406 140.271 212.792 145.811 214.635 151.541Z" fill="#FFB27D"/>
<path d="M221.12 163.225C221.031 163.624 220.93 164.007 220.813 164.414C217.55 175.391 214.9 219.265 214.9 219.265C217.259 226.739 157.355 226.114 156.197 219.163C153.067 212.071 160.733 198.834 165.162 192.095C165.715 191.252 166.192 190.363 166.589 189.436C167.593 187.111 168.063 184.59 167.965 182.058C167.576 172.024 165.842 162.816 165.11 157.171C166.031 156.251 166.927 155.396 167.763 154.586C169.038 153.335 170.154 152.177 170.938 151.054C171.802 149.829 172.28 148.633 172.174 147.379C172.086 146.412 171.923 145.454 171.686 144.512C171.576 144.064 171.452 143.616 171.317 143.173C170.331 140.109 168.975 137.179 167.277 134.447C172.02 131.666 181.156 131.58 181.156 131.58C181.156 131.58 181.218 132.081 181.332 132.899C181.779 136.188 183.028 144.627 184.308 146.063C185.907 147.859 211.166 153.074 212.044 150.191C212.908 147.356 207.693 135.422 207.498 134.971C207.497 134.967 207.497 134.962 207.498 134.958C215.993 136.954 219.251 139.196 219.251 139.196C214.868 143.061 223.425 152.706 221.12 163.225Z" fill="#2B478B"/>
<path d="M206.8 117.931C206.8 117.931 205.998 122.563 205.551 126.957C197.311 125.894 193.698 117.885 192.327 113.511L206.8 117.931Z" fill="#ED985F"/>
<path d="M209.144 122.37C209.144 122.37 189.562 120.728 190.767 108.499C191.971 96.271 190.247 87.8242 202.812 88.3559C215.377 88.8875 217.332 93.7951 217.919 97.9729C218.506 102.151 214.269 122.482 209.144 122.37Z" fill="#FFB27D"/>
<path d="M218.015 91.1185C215.359 87.1361 212.994 87.7147 211.605 88.692C201.507 81.7204 193.752 89.7476 193.752 89.7476C191.569 98.3899 184.767 102.779 184.767 102.779C184.767 102.779 188.111 105.346 196.538 104.051C199.113 103.654 201.53 102.091 203.651 100.11C201.128 103.445 198.164 106.418 194.84 108.948C205.107 105.38 210.416 92.0749 210.951 90.665C212.036 91.8612 214.157 94.4336 214.645 96.7975C215.31 100.008 215.107 106.461 216.982 106.441C216.992 106.435 221.997 97.0894 218.015 91.1185Z" fill="#2C3A64"/>
<path d="M197.059 207.252C185.489 208.816 173.954 198.193 166.592 189.439C167.595 187.113 168.064 184.59 167.965 182.058C167.576 172.024 165.842 162.816 165.11 157.171C166.031 156.251 166.927 155.396 167.763 154.586C169.037 153.335 170.154 152.177 170.938 151.054C182.734 165.73 212.747 205.136 197.059 207.252Z" fill="#233862"/>
<path d="M237.431 211.232L239.477 218.206C239.477 218.206 234.31 217.026 231.073 216.708C230.102 216.609 229.544 216.52 229.544 216.52C226.948 216.239 223.833 215.819 220.458 215.379H220.406C214.598 214.506 208.085 213.416 202.555 212.056C198.661 211.063 195.266 209.932 192.913 208.709C192.679 208.592 192.453 208.457 192.239 208.305C186.579 204.889 179.258 194.015 173.287 182.201C172.459 180.57 171.672 178.936 170.896 177.346C168.09 171.422 165.748 165.547 164.206 160.434C163.253 157.387 162.553 154.596 162.262 152.274C162.135 151.503 162.053 150.726 162.015 149.946C161.981 149.524 161.955 149.112 161.937 148.711C164.224 146.702 169.502 142.946 176.698 143.334C176.849 143.595 176.997 143.856 177.148 144.116C180.263 149.785 183.638 157.176 186.844 164.539C188.617 168.573 190.338 172.618 192.036 176.332C193.012 178.594 193.975 180.718 194.879 182.668C196.623 186.382 198.163 189.379 199.471 191.242C200.31 192.459 202.558 194.06 205.507 195.827C210.634 198.926 218.056 202.559 224.5 205.493C227.176 206.734 229.692 207.839 231.8 208.772C235.203 210.281 237.431 211.232 237.431 211.232Z" fill="#ED985F"/>
<path d="M177.415 144.2C168.443 142.54 162.005 149.933 162.005 149.933C160.966 136.696 167.373 134.314 167.373 134.314C169.918 132.988 173.648 137.369 177.415 144.2Z" fill="#2B478B"/>
<path d="M178.054 411.563H147.651C147.651 411.563 146.922 406.911 148.51 403.382C150.032 399.994 152.405 398.456 151.844 394.359C153.775 396.356 156.924 398.592 161.319 398.008C161.857 398.884 164.796 403.575 166.595 404.873C168.583 406.296 177.444 405.785 178.054 411.563Z" fill="#233862"/>
<path d="M243.334 411.563H212.932C212.932 411.563 211.795 406.695 213.791 403.382C215.556 400.45 214.881 398.782 213.573 396.345C215.187 397.046 216.936 397.376 218.692 397.312C220.209 397.224 221.808 396.53 223.215 395.715C224.513 397.213 230.126 403.588 231.878 404.85C233.861 406.296 242.732 405.785 243.334 411.563Z" fill="#233862"/>
<path d="M204.474 115.299C204.474 115.299 204.749 116.918 208.716 116.92C208.716 116.92 212.047 116.92 212.054 115.164C212.054 115.153 208.916 113.715 204.474 115.299Z" fill="white"/>
<path d="M243.064 224.86C243.064 224.86 228.692 206.179 221.704 200.377C221.704 200.377 212.137 176.694 211.359 175.133C211.322 175.063 211.275 174.998 211.218 174.943C211.114 174.39 210.79 172.41 211.148 170.59C211.569 168.451 210.216 163.324 209.287 163.788C208.357 164.252 209.121 166.045 207.989 166.017C206.857 165.988 204.051 160.241 202.719 161.046C201.387 161.852 200.704 164.062 201.906 168.386C202.906 171.985 204.998 175.37 205.671 176.402L205.611 176.436C205.611 176.436 209.126 199.46 212.83 206.283C216.535 213.106 228.025 236.012 236.138 236.864C244.251 237.717 243.064 224.86 243.064 224.86Z" fill="#FFB27D"/>
<path d="M306.46 166.413C305.162 165.917 303.605 171.365 302.605 171.573C301.606 171.782 302.011 170.085 301.128 169.819C300.245 169.553 299.83 174.25 300.528 176.061C301.227 177.872 301.123 180.02 301.123 180.02C301.123 180.02 295.24 202.827 293.976 205.381C292.711 207.935 271.977 226.492 271.977 226.492L276.535 241.295C276.535 241.295 300.959 218.639 303.039 213.312C305.118 207.985 306.076 180.627 306.076 180.627C306.076 180.627 307.893 176.686 308.298 172.715C308.703 168.743 307.745 166.91 306.46 166.413Z" fill="#FFB27D"/>
<path d="M271.011 222.186L261.198 235.074L252.171 219.799C252.171 219.799 254.155 216.046 255.053 209.895C255.482 206.939 255.59 203.945 255.375 200.966L268.064 207.482C267.836 208.443 267.667 209.417 267.558 210.398C267.343 212.277 267.247 214.808 267.779 217.213C268.236 219.288 269.303 220.792 271.011 222.186Z" fill="#FFB27D"/>
<path d="M286.468 400.64C286.468 400.64 288.09 403.823 291.689 404.607C293.955 405.102 295.894 406.286 297.101 407.946C297.336 408.261 297.479 408.636 297.514 409.029C297.548 409.421 297.473 409.815 297.297 410.167C297.12 410.519 296.85 410.815 296.515 411.021C296.181 411.227 295.796 411.335 295.403 411.334H277.145C276.778 411.334 276.415 411.257 276.08 411.107C275.744 410.958 275.444 410.739 275.198 410.466C274.952 410.192 274.765 409.87 274.651 409.52C274.537 409.17 274.497 408.8 274.534 408.433C274.669 407.075 274.812 405.493 274.874 404.281C275.009 401.633 277.649 399.502 277.649 399.502L286.468 400.64Z" fill="#D3671E"/>
<path d="M286.909 401.44C286.909 401.44 282.53 404.047 275.115 402.483C275.115 402.483 262.514 370.134 261.769 354.911C261.736 354.3 261.725 353.717 261.735 353.163C261.995 338.844 248.82 301.559 252.374 293.923C255.928 286.287 284.625 297.355 284.625 297.355L285.196 323.334L286.909 401.44Z" fill="#35488B"/>
<path d="M285.193 323.324L261.769 354.898C261.736 354.287 261.725 353.704 261.735 353.15C261.995 338.831 248.82 301.546 252.374 293.91C255.928 286.274 284.625 297.342 284.625 297.342L285.193 323.324Z" fill="#2C3A64"/>
<path d="M239.326 400.64C239.326 400.64 240.948 403.823 244.547 404.607C246.813 405.102 248.752 406.286 249.959 407.946C250.194 408.261 250.337 408.636 250.372 409.029C250.406 409.421 250.331 409.815 250.155 410.167C249.978 410.519 249.708 410.815 249.373 411.021C249.039 411.227 248.654 411.335 248.262 411.334H230.011C229.644 411.334 229.281 411.257 228.946 411.107C228.61 410.958 228.31 410.739 228.064 410.466C227.818 410.192 227.631 409.87 227.517 409.52C227.403 409.17 227.363 408.8 227.4 408.433C227.535 407.075 227.677 405.493 227.74 404.281C227.875 401.633 230.515 399.502 230.515 399.502L239.326 400.64Z" fill="#D3671E"/>
<path d="M267.836 297.96C267.836 297.96 242.472 392.978 241.694 402.285C241.694 402.285 236.746 404.834 228.713 400.333C228.713 400.333 224.04 357.742 228.713 346.102C233.386 334.463 227.792 299.284 239.653 291.335C251.515 283.386 267.836 297.96 267.836 297.96Z" fill="#35488B"/>
<path d="M291.691 229.828C293.332 219.942 287.067 212.827 287.067 212.827L277.678 219.533C275.86 219.642 275.081 220.315 275.081 220.315C273.524 219.895 269.188 220.315 269.188 220.315C269.256 222.561 268.365 224.613 264.435 225.131C259.207 225.814 254.534 222.233 252.169 219.799C249.747 219.7 247.327 220.047 245.029 220.823C243.785 220.22 242.436 219.866 241.058 219.781L233.371 212.843C233.371 212.843 224.365 215.449 222.945 229.08C222.945 229.08 233.054 236.805 233.786 242.893L234.064 245.204L235.042 253.398L236.766 267.769L231.631 296.394C231.587 296.64 231.564 296.891 231.564 297.142C231.565 298.088 231.883 299.006 232.467 299.75C233.051 300.493 233.866 301.017 234.783 301.239C234.783 301.239 235.224 301.312 236.037 301.426C241.488 302.192 263.576 304.84 280.899 300.123C282.788 299.599 284.435 298.429 285.556 296.815C286.677 295.202 287.201 293.246 287.039 291.285L283.373 245.111C283.373 245.111 283.721 237.727 283.807 236.427C283.892 235.126 291.691 229.828 291.691 229.828Z" fill="#F99F46"/>
<path opacity="0.4" d="M243.049 279.823C242.706 289.808 241.73 298.273 236.039 301.434C235.227 301.322 234.785 301.246 234.785 301.246C233.869 301.025 233.053 300.5 232.469 299.757C231.886 299.014 231.567 298.096 231.566 297.149C231.567 296.899 231.59 296.648 231.634 296.401L236.761 267.777L235.037 253.406L235.164 253.023C235.164 253.023 243.485 267.034 243.049 279.823Z" fill="#D86713"/>
<path d="M267.776 217.224C260.562 217.031 255.056 209.898 255.056 209.898L267.561 210.419C267.343 212.285 267.247 214.818 267.776 217.224Z" fill="#EA9C68"/>
<path d="M271.289 213.187C271.289 213.187 256.896 217.002 251.932 205.511C246.574 193.111 252.452 184.078 257.34 183.468C267.086 182.253 272.748 185.983 274.461 189.926C276.174 193.869 279.22 211.154 271.289 213.187Z" fill="#FFB27D"/>
<path d="M265.577 206.718C265.577 206.718 266.18 208.209 269.975 207.372C269.975 207.372 273.163 206.671 272.802 204.985C272.797 204.985 269.49 204.263 265.577 206.718Z" fill="white"/>
<path d="M252.179 174.242C248.415 175.438 245.616 177.275 243.695 179.517C243.581 178.977 243.514 178.429 243.495 177.878C243.163 178.618 243.03 179.433 243.111 180.241L243.049 180.33C242.314 180.406 241.232 180.708 240.577 181.761C241.119 181.43 241.75 181.279 242.382 181.328C237.306 189.739 242.462 202.293 254.487 209.53C254.487 209.53 252.8 204.558 252.999 201.902C252.999 201.902 249.243 197.093 251.442 195.907C253.641 194.722 254.817 197.562 255.313 197.005C255.808 196.447 256.598 186.999 259.253 187.296C261.909 187.594 271.743 190.653 276.053 186.921C280.362 183.189 269.902 168.61 252.179 174.242Z" fill="#2C3A64"/>
<path d="M546.871 381.784C546.871 381.784 553.102 387.57 551.877 391.688C550.651 395.806 545.052 398.54 544.294 403.562C543.535 408.584 540.503 411.326 537.772 411.326H524.758C524.758 411.326 522.749 407.792 527.614 406.726C532.479 405.66 534.296 399.757 533.992 394.276C533.689 388.795 534.447 381.487 534.447 381.487L544.758 379.05L546.871 381.784Z" fill="#2C3A64"/>
<path d="M469.368 411.107C469.134 411.209 468.888 411.281 468.636 411.321H434.142C434.42 410.106 435.498 407.672 439.656 406.997C445.093 406.114 454.514 402.942 456.617 395.96C456.684 395.735 456.744 395.506 456.796 395.272C458.465 387.813 470.594 397.557 470.594 397.557C470.594 397.557 470.63 397.854 470.682 398.357C470.962 401.094 471.684 409.95 469.368 411.107Z" fill="#2C3A64"/>
<path d="M441.1 211.584C441.1 211.584 442.943 234.662 445.108 262.406C448.052 300.092 451.598 346.381 451.941 355.148C452.546 370.377 454.976 394.732 454.976 394.732C454.976 394.732 460.736 400.518 472.263 398.081C472.263 398.081 482.536 363.311 485.469 326.522C485.516 325.92 485.56 325.312 485.607 324.697C488.338 287.246 492.582 208.381 492.582 208.381L441.1 211.584Z" fill="#F1A34F"/>
<path opacity="0.4" d="M441.1 211.584C441.1 211.584 442.943 234.662 445.108 262.406L485.464 326.519C485.511 325.917 485.555 325.31 485.602 324.695C488.333 287.243 492.577 208.378 492.577 208.378L441.1 211.584Z" fill="#D86713"/>
<path d="M449.514 214.318C449.514 214.318 482.725 297.9 504.55 337.179C526.375 376.457 533.232 387.419 533.232 387.419C533.232 387.419 545.742 382.394 546.879 378.97C546.879 378.97 538.528 303.128 523.904 284.655C515.641 274.209 505.934 242.864 505.472 231.902C505.01 220.94 502.515 199.246 502.515 199.246L449.514 214.318Z" fill="#F1A34F"/>
<path d="M351.344 182.801L345.456 183.927C345.456 183.927 334.428 181.305 330.373 192.986C330.373 192.986 329.059 197.938 332.738 197.677C336.416 197.416 334.968 196.984 340.162 196.728C345.357 196.473 349.97 193.838 351.188 190.213L354.067 187.01L351.344 182.801Z" fill="#FFB27D"/>
<path d="M347.551 187.638C345.733 183.708 345.954 183.017 345.954 183.017C345.954 183.017 379.615 158.628 382.673 156.204C385.731 153.78 417.966 108.898 417.966 108.898L457.668 114.481C457.668 114.481 404.233 167.593 396.367 173.588C383.366 183.491 351.427 192.313 351.427 192.313C349.758 191.113 348.424 189.503 347.551 187.638Z" fill="#233862"/>
<path d="M434.882 82.7342C434.882 82.7342 421.331 106.67 408.086 109.795C408.086 109.795 408.639 101.757 411.863 96.2423C410.542 94.6786 409.384 93.2426 408.379 91.9551C405.046 87.6652 403.46 85.0407 403.46 85.0407L407.956 72.9322L411.006 64.7017C412.347 67.1625 413.945 69.4733 415.773 71.5952C424.457 81.6031 434.882 82.7342 434.882 82.7342Z" fill="#FFB27D"/>
<path d="M415.77 71.5847C415.77 71.5847 417.387 83.5734 408.379 91.9681C405.046 87.6782 403.46 85.0538 403.46 85.0538L407.956 72.9322C412.774 71.4466 415.77 71.5847 415.77 71.5847Z" fill="#ED975D"/>
<path d="M399.89 86.8234C399.89 86.8234 420.139 78.9004 415.028 66.3175C409.916 53.7346 409.09 44.2401 395.947 48.7671C382.803 53.2942 382.257 59.1191 382.945 63.7321C383.633 68.3452 394.49 88.5696 399.89 86.8234Z" fill="#FFB27D"/>
<path d="M504.478 205.561C496.308 217.349 435.246 233.101 435.968 224.941C436.453 219.588 436.453 214.201 435.968 208.847C435.815 207.1 435.599 205.246 435.318 203.288C433.761 192.566 430.082 178.79 421.863 162.824C421.247 161.628 420.606 160.422 419.939 159.204C416.591 153.086 413.76 146.696 411.476 140.103C407.245 127.827 405.542 116.084 407.676 108.406C407.685 108.369 407.696 108.334 407.709 108.299C420.474 102.372 425.42 79.393 425.42 79.393C425.42 79.393 468.969 87.2404 493.361 145.516C493.351 145.518 511.583 195.3 504.478 205.561Z" fill="#2B478B"/>
<path d="M435.962 208.847C435.81 207.1 435.594 205.246 435.313 203.288C433.756 192.566 430.077 178.79 421.858 162.824C423.267 154.236 425.217 147.095 427.354 143.879C436.04 130.811 441.097 128.763 441.097 128.763C441.097 128.763 454.124 183.911 435.962 208.847Z" fill="#233862"/>
<path d="M417.933 42.9448C418.075 42.6633 418.486 42.3636 419.49 42.0535C418.827 41.8611 418.128 41.8352 417.452 41.9779C416.884 40.5861 415.503 38.2145 412.912 38.1962C413.37 38.3366 413.791 38.5785 414.143 38.9043C414.495 39.23 414.77 39.6311 414.947 40.0779C411.396 37.8183 404.823 37.1616 388.379 42.6581C366.723 49.9008 377.543 62.5228 380.824 63.5341C384.106 64.5453 390.15 58.061 395.586 57.1644C401.022 56.2679 403.948 63.8781 406.024 64.5088C408.101 65.1395 406.918 63.409 409.088 61.6784C411.258 59.9479 412.504 64.024 412.463 66.8909C412.421 69.7578 416.648 72.4656 416.648 72.4656L419.129 67.8969C421.611 63.3282 420.947 46.7395 418.566 43.7527L417.933 42.9448Z" fill="#2B478B"/>
<path d="M374.228 137.885C374.228 137.885 374.228 130.186 369.555 126.264C367.748 124.798 365.82 123.49 363.792 122.354C361.697 121.15 361.349 121.914 361.647 124.322C361.881 126.196 361.424 128.641 361.764 129.894C362.803 133.772 363.169 136.587 367.278 138.286C371.388 139.985 374.228 137.885 374.228 137.885Z" fill="#223D75"/>
<path d="M349.487 140.616C349.487 140.616 345.492 141.049 345.609 142.102C345.726 143.155 356.559 141.281 356.44 140.611C356.32 139.941 350.91 140.455 349.487 140.616Z" fill="#E57970"/>
<path d="M401.201 174.964C401.201 174.964 400.456 166.624 390.37 162.561C385.123 160.45 367.047 153.96 373.309 146.91C376.494 143.319 376.85 139.571 376.424 136.746C376.364 136.352 376.292 135.964 376.209 135.623C375.938 134.419 375.496 133.261 374.895 132.185C374.838 132.061 374.773 131.942 374.698 131.828C375.108 130.367 375.085 128.817 374.633 127.369C374.02 125.219 371.904 123.527 370.399 121.833C368.792 120.027 368.22 120.639 367.743 123.019C367.39 124.778 366.289 126.832 366.118 128.143C364.724 128.082 363.327 128.129 361.941 128.281H361.925C361.406 128.33 360.887 128.398 360.347 128.479C354.983 129.276 354.529 131.81 352.083 131.844C349.853 131.872 347.005 131.82 346.53 131.81H346.463C346.463 131.81 343.226 131.111 343.553 133.996C343.589 134.306 343.623 134.601 343.657 134.877C343.898 136.894 344.134 138.091 344.955 138.833C345.58 139.396 347.919 139.952 349.627 140.071C350.957 140.165 354.077 140.223 354.248 140.267C354.718 140.389 352.522 141.609 345.897 141.713H345.536C345.382 141.717 345.235 141.778 345.124 141.884C345.013 141.991 344.945 142.135 344.934 142.289C344.901 142.722 344.981 143.155 345.166 143.547C345.351 143.939 345.634 144.276 345.988 144.526C347.532 145.709 353.438 145.49 352.636 147.158C352.409 147.56 352.092 147.903 351.71 148.161C350.126 149.36 347.247 150.507 346.46 152.889C346.46 152.889 348.563 151.94 350.095 152.138C350.095 152.138 345.139 153.924 345.053 156.47C345.575 156.077 346.219 155.881 346.87 155.917C346.87 155.917 342.904 159.952 343.423 165.748C341.006 169.081 337.317 173.582 334.557 174.349C334.557 174.349 332.169 172.947 331.076 172.98C329.983 173.014 328.327 174.721 328.332 176.035C328.337 177.348 334.692 177.695 335.466 177.442C336.24 177.189 352.691 177.182 354.495 176.03L401.201 174.964Z" fill="#2B478B"/>
<path d="M399.575 165.722L328.301 176.211L337.568 239.673L408.842 229.183L399.575 165.722Z" fill="#D3671E"/>
<path d="M435.211 160.479L363.937 170.968L373.204 234.429L444.478 223.94L435.211 160.479Z" fill="#F1A34F"/>
<path opacity="0.4" d="M363.932 170.989L435.391 160.478L438.335 180.653L373.195 234.451L363.932 170.989Z" fill="#D86713"/>
<path d="M335.251 223.593L346.543 221.931L345.048 218.647L345.684 216.048L334.391 217.709L335.251 223.593Z" fill="#F1A34F"/>
<path d="M364.978 178.164L352.322 196.598L331.751 199.624L328.335 176.228L363.932 170.989L364.978 178.164Z" fill="#C95C12"/>
<path d="M328.293 176.233L314.705 195.287L350.368 190.041L363.932 170.989L328.293 176.233Z" fill="#F1A34F"/>
<path d="M363.932 170.989L380.471 185.613L450.804 175.266L435.207 160.504L363.932 170.989Z" fill="#F1A34F"/>
<path d="M346.531 131.815C346.193 132.818 345.349 134.666 343.657 134.885C343.623 134.606 343.589 134.312 343.553 134.004C343.223 131.116 346.463 131.818 346.463 131.818L346.531 131.815Z" fill="#1D3972"/>
<path d="M342.325 174.169C342.325 174.169 348.753 169.048 356.985 167.755C365.217 166.462 377.779 168.954 377.779 168.954L342.325 174.169Z" fill="#223D75"/>
<path d="M390.368 162.561C371.523 162.506 354.464 147.861 363.659 147.34C372.855 146.819 376.206 135.625 376.206 135.625C376.289 135.98 376.362 136.355 376.422 136.748C376.845 139.566 376.489 143.314 373.306 146.913C367.045 153.96 385.121 160.447 390.368 162.561Z" fill="#223D75"/>
<path d="M400.339 165.748C400.339 165.748 402.834 156.626 393.07 158.135C393.07 158.135 394.495 154.487 399.547 154.487C399.269 153.854 398.819 153.312 398.249 152.923C398.249 152.923 404.402 151.753 406.928 156.311C406.928 156.311 407.639 153.392 406.928 152.089C406.928 152.089 413.535 153.848 412.639 160.476C413.501 159.826 414.082 158.869 414.262 157.802C414.262 157.802 416.102 161.026 413.981 163.741L400.339 165.748Z" fill="#223D75"/>
<path d="M367.029 128.872C367.029 128.872 367.073 128.091 367.72 126.662C368.366 125.234 368.28 122.847 368.584 122.891C368.888 122.935 371.736 128.698 369.924 130.434C369.921 130.434 368.325 130.997 367.029 128.872Z" fill="#223D75"/>
<path d="M343.426 165.769C342.906 159.97 346.873 155.938 346.873 155.938C346.221 155.902 345.578 156.098 345.056 156.491C345.142 153.944 350.097 152.159 350.097 152.159C348.555 151.961 346.463 152.91 346.463 152.91C347.242 150.535 350.129 149.381 351.712 148.182C351.811 148.146 354.485 147.173 355.375 148.771C356.266 150.369 343.267 159.425 343.426 165.769Z" fill="#D3671E"/>
<path d="M364.978 196.39C364.978 196.39 357.377 195.993 355.697 196.39C354.017 196.786 348.48 200.26 348.48 200.758C348.48 201.255 348.825 201.602 349.864 201.503C350.902 201.404 354.212 200.411 354.064 200.857C353.916 201.302 344.492 204.826 344.718 206.812C344.944 208.798 350.853 211.584 355.401 211.078C359.95 210.573 368.065 204.112 368.703 203.674C369.342 203.236 364.978 196.39 364.978 196.39Z" fill="#FFB27D"/>
<path d="M365.043 200.312C362.629 196.403 364.371 194.612 364.371 194.612C364.371 194.612 401.585 165.36 404.503 162.404C407.421 159.449 420.934 112.393 420.934 112.393C420.934 112.393 425.583 93.3494 436.474 91.2488C445.939 89.4244 452.478 94.1156 456.759 99.6356C459.242 102.856 460.7 106.752 460.944 110.817C461.188 114.882 460.207 118.926 458.127 122.422C448.626 138.495 429.457 170.403 423.859 175.85C411.398 187.982 369.721 204.935 369.721 204.935C367.829 203.775 366.228 202.193 365.043 200.312Z" fill="#2B478B"/>
<path d="M393.719 80.7978C393.719 80.7978 394.739 82.6457 398.322 81.2591C398.322 81.2591 401.331 80.0968 400.497 77.9805C400.497 77.9779 396.972 77.3367 393.719 80.7978Z" fill="white"/>
<path d="M379.285 411.323H342.187C340.199 409.629 343.563 405.785 347.078 405.527C348.605 405.41 350.534 405.733 352.74 406.199C353.259 399.392 356.167 368.795 367.151 370.025C379.503 371.401 367.151 383.499 363.659 390.664C361.063 395.97 358.343 403.578 357.096 407.169C358.098 407.388 359.137 407.602 360.199 407.797C361.837 402.749 367.927 385.774 375.676 386.762C384.763 387.919 381.128 394.727 374.669 398.766C369.939 401.738 364.132 405.96 361.372 408C363.767 408.419 366.195 408.615 368.625 408.584C374.978 408.433 378.08 410.312 379.285 411.323Z" fill="#82B378"/>
<path d="M237.431 211.232C237.431 211.232 247.337 213.163 248.228 214.255C249.118 215.347 252.161 221.292 252.171 222.692C252.182 224.091 246.979 224.415 244.705 221.6C242.431 218.785 239.933 220.036 237.436 216.499C234.939 212.963 237.431 211.232 237.431 211.232Z" fill="#ED985F"/>
</svg>
