<svg width="840" height="368" viewBox="0 0 840 368" fill="none" xmlns="http://www.w3.org/2000/svg">
<path opacity="0.2" d="M268.564 271.936H207.041V363H184.092V271.936H0.498047V255.578L177.5 4.11328H207.041V250.939H268.564V271.936ZM184.092 250.939V148.889C184.092 99.735 185.231 58.4753 187.51 25.1094H185.557C182.301 31.1315 172.292 46.431 155.527 71.0078L29.5508 250.939H184.092ZM533.213 183.557C533.213 246.219 523.61 292.606 504.404 322.717C485.361 352.827 456.471 367.883 417.734 367.883C380.462 367.883 352.142 352.421 332.773 321.496C313.405 290.409 303.721 244.429 303.721 183.557C303.721 121.382 313.079 75.321 331.797 45.373C350.677 15.4251 379.323 0.451172 417.734 0.451172C455.332 0.451172 483.978 15.9948 503.672 47.082C523.366 78.0065 533.213 123.498 533.213 183.557ZM330.088 183.557C330.088 238.895 337.331 279.829 351.816 306.359C366.302 332.727 388.275 345.91 417.734 345.91C448.496 345.91 470.876 332.238 484.873 304.895C499.033 277.551 506.113 237.105 506.113 183.557C506.113 130.822 499.033 90.7832 484.873 63.4395C470.876 36.0957 448.496 22.4238 417.734 22.4238C386.973 22.4238 364.674 36.0957 350.84 63.4395C337.005 90.7832 330.088 130.822 330.088 183.557ZM839.854 271.936H778.33V363H755.381V271.936H571.787V255.578L748.789 4.11328H778.33V250.939H839.854V271.936ZM755.381 250.939V148.889C755.381 99.735 756.52 58.4753 758.799 25.1094H756.846C753.59 31.1315 743.581 46.431 726.816 71.0078L600.84 250.939H755.381Z" fill="#E5E5E5"/>
</svg>
